<svg width="101" height="58" viewBox="0 0 101 58" fill="none" xmlns="http://www.w3.org/2000/svg">
<path d="M40.7255 40.0803L40.3041 41.5199L40.7255 40.0803ZM99.8521 46.4689C100.387 45.8365 100.308 44.89 99.6759 44.3549L89.3701 35.6348C88.7377 35.0997 87.7912 35.1786 87.2561 35.811C86.721 36.4434 86.7999 37.3899 87.4323 37.925L96.593 45.6762L88.8419 54.8369C88.3068 55.4694 88.3856 56.4158 89.0181 56.9509C89.6505 57.486 90.5969 57.4072 91.1321 56.7747L99.8521 46.4689ZM2.20703 1C0.709142 1.07955 0.709198 1.0806 0.709261 1.08176C0.70929 1.08229 0.709359 1.08356 0.709418 1.08462C0.709536 1.08674 0.709681 1.08929 0.709854 1.09227C0.710202 1.09824 0.710664 1.10592 0.711257 1.1153C0.712445 1.13405 0.714159 1.15959 0.716531 1.19174C0.721275 1.25603 0.728653 1.34677 0.739719 1.46255C0.761848 1.69409 0.798742 2.02595 0.858853 2.44685C0.979043 3.28845 1.19225 4.48747 1.56641 5.95343C2.31447 8.88434 3.70824 12.8914 6.29493 17.2431C11.4878 25.9792 21.4247 35.9935 40.3041 41.5199L41.1469 38.6407C23.0078 33.331 13.6855 23.8052 8.87375 15.7102C6.45813 11.6463 5.16325 7.91503 4.47323 5.21152C4.12835 3.86027 3.93516 2.76805 3.82872 2.02272C3.77551 1.65015 3.74403 1.36462 3.72611 1.17713C3.71715 1.0834 3.71159 1.01422 3.7084 0.970967C3.7068 0.949342 3.7058 0.934205 3.70526 0.925726C3.70499 0.921487 3.70484 0.918913 3.70479 0.918027C3.70476 0.917583 3.70476 0.917562 3.70479 0.917965C3.7048 0.918165 3.70483 0.918788 3.70484 0.918888C3.70488 0.919615 3.70492 0.92045 2.20703 1ZM40.3041 41.5199C54.1043 45.5595 68.7394 46.9224 79.8911 47.2819C85.4741 47.4619 90.2001 47.3908 93.5334 47.2745C95.2004 47.2163 96.5199 47.1468 97.425 47.0917C97.8776 47.0641 98.2267 47.0401 98.4639 47.0229C98.5825 47.0143 98.6732 47.0074 98.7348 47.0026C98.7656 47.0001 98.7892 46.9983 98.8053 46.997C98.8134 46.9963 98.8197 46.9958 98.8241 46.9954C98.8263 46.9953 98.828 46.9951 98.8292 46.995C98.8299 46.995 98.8305 46.9949 98.8308 46.9949C98.8313 46.9948 98.8316 46.9948 98.707 45.5C98.5824 44.0052 98.5826 44.0052 98.5826 44.0052C98.5824 44.0052 98.5823 44.0052 98.582 44.0052C98.5814 44.0053 98.5803 44.0054 98.5788 44.0055C98.5757 44.0057 98.5708 44.0061 98.564 44.0067C98.5504 44.0078 98.5295 44.0095 98.5014 44.0116C98.4451 44.016 98.3599 44.0225 98.2469 44.0307C98.0207 44.0471 97.6832 44.0704 97.2426 44.0972C96.3613 44.1509 95.0678 44.2191 93.4288 44.2763C90.1503 44.3907 85.4924 44.4609 79.9878 44.2835C68.9643 43.9281 54.6085 42.5812 41.1469 38.6407L40.3041 41.5199Z" fill="#610944"/>
</svg>
