<svg width="276" height="77" viewBox="0 0 276 77" fill="none" xmlns="http://www.w3.org/2000/svg">
<path fill-rule="evenodd" clip-rule="evenodd" d="M40.8073 73.6116C52.2848 62.0013 62.3388 46.721 67.2214 27.1908C68.6655 21.3993 66.3205 18.0567 60.6746 16.4332C45.9237 12.6608 29.0204 11.5353 11.0649 15.867C10.1296 16.0921 9.18746 16.3309 8.24533 16.5901C8.47227 17.8794 8.74047 19.2096 9.04993 20.5671L9.07743 20.5602C9.90266 24.3257 10.8861 27.7297 12.0895 31.0586C12.509 32.232 12.9629 33.3984 13.4442 34.5786C18.0999 46.4413 25.0524 57.1034 34.3431 66.1625C45.4698 54.7227 53.392 41.1409 57.4081 25.731C53.3301 24.7214 49.2315 23.9778 45.126 23.5072C45.2635 23.0979 45.4011 22.6749 45.5386 22.252C46.0062 20.799 46.4326 19.3596 46.8108 17.9066C51.0882 18.4455 55.3588 19.2573 59.6018 20.3419C63.0815 21.3515 64.1681 22.634 63.2672 26.2221C59.0104 43.2624 50.2974 58.2358 37.9465 70.7398C35.3265 73.2228 33.6623 73.5161 30.9803 70.9444C20.5549 60.9917 12.8322 49.1631 7.76395 35.9634C7.0075 34.0124 6.29918 31.9864 5.65275 29.9331C4.49744 26.2767 3.5278 22.5112 2.84011 18.964C0.405698 20.9695 -0.165083 23.9778 0.825187 27.9548C5.21951 43.624 13.5336 59.9003 28.147 73.8572C32.4794 77.9979 36.5712 77.65 40.8142 73.6116H40.8073ZM39.2875 23.0092C31.5098 22.6067 23.7252 23.1865 16.0093 24.8033C15.4729 22.9955 14.9984 21.1469 14.5789 19.2164C23.3607 17.3473 32.2319 16.747 41.0824 17.3473C40.7798 18.4524 40.4635 19.5165 40.1334 20.5466C39.8721 21.3515 39.5901 22.1769 39.2875 23.0092ZM34.233 57.6833C41.2337 49.4769 46.5908 40.2337 50.0498 30.0422C39.3838 28.1322 28.6353 28.1527 18.0105 30.2742C21.6759 40.3974 27.0673 49.6202 34.233 57.6833Z" fill="#610944" fill-opacity="0.22"/>
<path fill-rule="evenodd" clip-rule="evenodd" d="M40.0709 72.8885C52.8275 59.9889 61.8224 44.5244 66.2099 26.9452C67.5234 21.6994 65.4947 18.8889 60.3989 17.4291C43.5368 13.1179 26.2896 12.9337 9.42754 17.3404C9.55133 17.9953 9.68199 18.6434 9.81952 19.2914L9.84703 19.2846L10.0808 20.3419C10.8511 23.8619 11.8276 27.3136 13.0517 30.7107C13.4711 31.8841 13.9388 33.0437 14.3995 34.2034C18.9176 45.6705 25.5676 55.9642 34.3081 64.689C44.6853 53.795 52.1604 40.9567 56.1215 26.4745C52.4561 25.6082 48.7357 24.9533 44.9947 24.5236L43.7225 24.3803L44.1282 23.1797C44.2658 22.7704 44.4033 22.3543 44.534 21.9382C44.9879 20.5193 45.4142 19.0868 45.7924 17.6474L46.0194 16.7743L46.9203 16.8902C51.2733 17.4359 55.592 18.2614 59.8419 19.346L59.8557 19.3528L59.8694 19.3596C63.8649 20.5193 65.2884 22.3202 64.25 26.4745C59.9519 43.6786 51.1427 58.8293 38.6611 71.4628L38.6474 71.4765L38.6336 71.4901C35.6216 74.3415 33.3384 74.6622 30.2301 71.6948C19.791 61.7216 11.9238 49.7702 6.76619 36.3385C5.99598 34.333 5.28079 32.3002 4.63436 30.2469C3.69911 27.2795 2.88076 24.2575 2.2137 21.2083C1.07214 23.1047 1.24406 25.4649 1.80109 27.7024C6.68367 45.0974 15.6855 60.562 28.841 73.1273C32.7608 76.8723 36.2267 76.5381 40.0503 72.8954L40.0709 72.8885ZM39.2319 24.0392C31.5092 23.6368 23.7865 24.2234 16.2219 25.8128L15.2798 26.0107L15.0116 25.0966C14.4614 23.2275 13.98 21.3447 13.5605 19.4415L13.3405 18.4319L14.3583 18.2136C23.1469 16.3445 32.1831 15.7169 41.1506 16.324L42.409 16.4059L42.0789 17.6133C41.7832 18.6979 41.46 19.7826 41.1162 20.8536C40.848 21.6926 40.5591 22.5248 40.2634 23.3503L40.0021 24.0665L39.2319 24.0256V24.0392ZM33.4553 58.3654C26.2071 50.2068 20.74 40.8544 17.0402 30.6221L16.6345 29.5033L17.8105 29.2714C28.5521 27.1226 39.4589 27.1021 50.2349 29.0395L51.4177 29.2509L51.0326 30.3765C47.5323 40.6771 42.0996 50.0567 35.0233 58.3518L34.2462 59.259L33.4553 58.3654Z" fill="black" fill-opacity="0.290196"/>
<path fill-rule="evenodd" clip-rule="evenodd" d="M42.6627 1.80094L40.7303 10.4439C36.2534 10.096 31.7628 10.0482 27.2722 10.3484L25.3398 1.81459L28.6889 6.1804L31.3434 1.61676L33.9978 6.1804L36.6523 1.62358L39.3068 6.1804L42.6627 1.80094Z" fill="black" fill-opacity="0.290196"/>
<path fill-rule="evenodd" clip-rule="evenodd" d="M40.8811 72.7726C52.4824 61.0395 62.6464 45.5955 67.5771 25.8538C69.0419 20.0009 66.6693 16.6242 60.9615 14.9802C46.0525 11.167 28.9703 10.0278 10.8154 14.4072C9.86638 14.6392 8.91738 14.8779 7.96837 15.1371C8.1953 16.4401 8.47038 17.7839 8.78672 19.155L8.81422 19.1482C9.64633 22.9547 10.6435 26.3996 11.8538 29.7558C12.2802 30.9359 12.734 32.116 13.2223 33.3098C17.9261 45.3021 24.9542 56.0802 34.3412 65.228C45.5917 53.6654 53.5964 39.9404 57.6538 24.3667C53.5276 23.3503 49.3878 22.5999 45.241 22.1224C45.3786 21.7063 45.523 21.2834 45.6605 20.8536C46.135 19.387 46.5614 17.9272 46.9465 16.4605C51.272 17.0062 55.5838 17.8248 59.875 18.9231C63.3891 19.9463 64.4894 21.2424 63.5816 24.8715C59.2836 42.0892 50.4743 57.2263 37.9859 69.8666C35.3383 72.377 33.6604 72.6703 30.944 70.0781C20.4086 60.0163 12.5965 48.0649 7.48011 34.7219C6.71678 32.7504 6.00158 30.704 5.3414 28.6234C4.17233 24.9261 3.19582 21.1197 2.50125 17.5383C0.0393344 19.5643 -0.531446 22.6068 0.4657 26.6247C4.90816 42.4575 13.3117 58.9112 28.0832 73.0182C32.4638 77.1998 36.5968 76.8519 40.8811 72.7726ZM39.3475 21.6313C31.4873 21.222 23.6201 21.8086 15.8218 23.4458C15.2785 21.6176 14.804 19.7553 14.3776 17.7975C23.2557 15.908 32.2162 15.3008 41.163 15.908C40.8604 17.0267 40.5372 18.1045 40.2003 19.1414C39.9389 19.96 39.6501 20.7854 39.3475 21.6313ZM34.238 56.6737C41.3143 48.3787 46.7264 39.0399 50.2267 28.7394C39.4438 26.8088 28.5852 26.8293 17.8436 28.9713C21.5502 39.1968 26.9967 48.5219 34.238 56.6737Z" fill="#693056"/>
<path fill-rule="evenodd" clip-rule="evenodd" d="M40.1374 72.0359C53.0315 58.9999 62.1227 43.3648 66.5583 25.6014C67.8856 20.301 65.8294 17.4633 60.6855 15.983C43.6446 11.624 26.2117 11.4398 9.17082 15.8943C9.2946 16.556 9.43214 17.2109 9.56968 17.8657L9.59718 17.8589L9.831 18.9299C10.615 22.4908 11.5984 25.9766 12.8362 29.4078C13.2626 30.5948 13.7371 31.7613 14.1978 32.9346C18.7641 44.5245 25.4896 54.9274 34.3195 63.7477C44.8068 52.7376 52.3645 39.763 56.3668 25.1307C52.6602 24.2576 48.9054 23.589 45.1231 23.1593L43.8371 23.0092L44.2497 21.795C44.3873 21.3789 44.5248 20.9627 44.6624 20.5398C45.1231 19.1073 45.5495 17.6611 45.9346 16.2013L46.1684 15.3213L47.083 15.4373C51.4842 15.9898 55.8442 16.8289 60.1422 17.9203L60.156 17.9271L60.1697 17.934C64.2064 19.1073 65.6437 20.9286 64.5984 25.1307C60.2591 42.5189 51.3536 57.8265 38.7345 70.6034L38.7207 70.617L38.707 70.6306C35.6605 73.5162 33.3568 73.8368 30.214 70.8353C19.658 60.753 11.7084 48.672 6.50259 35.1039C5.7255 33.071 5.00343 31.0246 4.34325 28.9508C3.39424 25.9493 2.56902 22.8932 1.90196 19.8167C0.746647 21.7336 0.925446 24.1211 1.48247 26.3791C6.41319 43.9583 15.5182 59.5865 28.8112 72.2883C32.7791 76.0743 36.2794 75.7332 40.1443 72.0564L40.1374 72.0359ZM39.2915 22.6681C31.4863 22.2588 23.681 22.8523 16.0339 24.4622L15.0849 24.66L14.8099 23.7391C14.2528 21.8495 13.7646 19.9463 13.3451 18.0226L13.125 17.0062L14.1497 16.7879C23.0277 14.8984 32.1671 14.2639 41.2239 14.8779L42.4961 14.9666L42.1592 16.1876C41.8566 17.2859 41.5334 18.3774 41.1895 19.462C40.9145 20.3079 40.6256 21.1537 40.323 21.986L40.0617 22.7159L39.2846 22.675L39.2915 22.6681ZM33.4531 57.3559C26.1292 49.1086 20.6002 39.6539 16.8592 29.3192L16.4465 28.1868L17.6362 27.948C28.4948 25.7788 39.5185 25.7583 50.4114 27.7093L51.608 27.9207L51.2229 29.0599C47.6882 39.4765 42.1936 48.9517 35.0416 57.3354L34.2576 58.2563L33.4531 57.3559Z" fill="#693056"/>
<path fill-rule="evenodd" clip-rule="evenodd" d="M42.7507 0.184183L40.7977 8.9158C36.2727 8.56108 31.734 8.52015 27.1952 8.8203L25.2422 0.197826L28.6256 4.61139L31.3076 0L33.9896 4.61139L36.6716 0L39.3535 4.61139L42.7438 0.184183H42.7507Z" fill="#693056"/>
<path fill-rule="evenodd" clip-rule="evenodd" d="M90.6601 23.971C91.3601 23.4059 91.7101 22.6297 91.7101 21.6418C91.7101 20.6606 91.3588 19.8884 90.6547 19.3233C89.9514 18.7582 88.9735 18.454 87.7226 18.4115V17.665H86.9875V18.4115C85.7292 18.454 84.75 18.7561 84.05 19.3179C83.35 19.879 83 20.6538 83 21.6418C83 22.629 83.35 23.4039 84.05 23.9656C84.7507 24.5274 85.7298 24.8295 86.9875 24.872V25.6394H87.7226V24.872C88.981 24.8362 89.9601 24.5361 90.6601 23.971ZM90.1105 23.5071C89.5495 23.9548 88.753 24.2003 87.7226 24.2428L87.7219 19.0502C88.7456 19.0859 89.54 19.3273 90.1051 19.7751C90.6703 20.2229 90.9528 20.8447 90.9528 21.6411C90.9528 22.4375 90.6723 23.0593 90.1105 23.5071ZM84.6043 23.5023C84.0392 23.0579 83.7566 22.4375 83.7566 21.6418C83.7566 20.8453 84.0358 20.2256 84.5935 19.7819C85.1512 19.3374 85.949 19.094 86.9869 19.0515V24.2435C85.9638 24.1936 85.1694 23.9461 84.6043 23.5023ZM98.7782 25.3838V24.7014L94.2896 24.702V21.9297H98.149V21.258H94.2896V18.6031H98.6183V17.9206H93.5006V25.3838H98.7782ZM107.382 27.0576V24.7014H106.262V17.9206H101.23L101.145 20.3409C101.102 21.72 100.985 22.7841 100.793 23.534C100.601 24.2833 100.26 24.673 99.7695 24.7014H99.3966L99.3858 27.0576H100.121L100.132 25.3838H106.646V27.0576H107.382ZM101.587 23.2245C101.726 22.4888 101.813 21.5527 101.849 20.4151L101.913 18.6024H105.484V24.7007H100.889C101.215 24.4518 101.449 23.9596 101.587 23.2245ZM114.269 25.3838V24.7014L109.78 24.702V21.9297H113.64V21.258H109.78V18.6031H114.109V17.9206H108.991V25.3838H114.269ZM121.05 18.6031C120.51 18.1479 119.764 17.9206 118.811 17.9206H116.018V25.3838H116.807V23.0276H118.811C119.764 23.0276 120.51 22.8017 121.05 22.3505C121.59 21.8987 121.86 21.2756 121.86 20.4791C121.86 19.6834 121.59 19.0583 121.05 18.6031ZM120.485 21.8495C120.094 22.1732 119.529 22.3343 118.79 22.3343H116.807V18.6031H118.79C119.53 18.6031 120.094 18.7649 120.485 19.0879C120.876 19.411 121.071 19.8749 121.071 20.4791C121.071 21.0692 120.876 21.5258 120.485 21.8495ZM123.726 23.3897H127.884L128.779 25.3831H129.611L126.199 17.9199H125.421L122.009 25.3831H122.83L123.726 23.3897ZM125.805 18.7413L127.596 22.7497H124.014L125.805 18.7413ZM136.914 25.3838V17.9206L131.848 17.9199L131.742 21.1184C131.707 21.9783 131.639 22.6695 131.54 23.1921C131.44 23.7141 131.293 24.0998 131.097 24.3487C130.902 24.5968 130.648 24.7216 130.335 24.7216C130.221 24.7216 130.104 24.7074 129.983 24.6791L129.919 25.3831C130.125 25.433 130.324 25.458 130.517 25.458C130.964 25.458 131.323 25.3036 131.594 24.994C131.863 24.6852 132.064 24.2158 132.196 23.5866C132.327 22.9581 132.41 22.128 132.446 21.0975L132.532 18.6031H136.135V25.3838H136.914ZM144.574 21.1825C144.108 20.7846 143.435 20.5857 142.553 20.5857L140.208 20.585V17.9199H139.43V25.3831H142.394C143.325 25.3831 144.038 25.1754 144.531 24.7594C145.026 24.3439 145.272 23.7343 145.272 22.9311C145.272 22.163 145.039 21.5804 144.574 21.1825ZM143.945 24.2954C143.586 24.6016 143.061 24.754 142.372 24.754L140.207 24.7546V21.2257H142.371C143.779 21.2257 144.483 21.7975 144.483 22.9419C144.483 23.5388 144.303 23.9899 143.945 24.2954ZM153.236 25.3831V17.9199H152.458V21.2459H147.788V17.9199H146.999V25.3831H147.788V21.9392H152.458V25.3831H153.236ZM160.897 21.1818C160.431 20.784 159.758 20.585 158.876 20.585L156.531 20.5844V17.9193H155.753V25.3825H158.717C159.648 25.3825 160.36 25.1748 160.854 24.7587C161.349 24.3433 161.595 23.7336 161.595 22.9305C161.595 22.1624 161.362 21.5797 160.897 21.1818ZM160.268 24.2947C159.909 24.6009 159.384 24.7533 158.695 24.7533L156.531 24.754V21.225H158.695C160.102 21.225 160.806 21.7969 160.806 22.9413C160.806 23.5381 160.626 23.9892 160.268 24.2947ZM163.663 17.9193H162.885V25.3825H163.663V17.9193ZM166.957 17.9193H166.179V25.3825H166.893L171.67 19.2093V25.3825H172.448V17.9193H171.734L166.957 24.1025V17.9193ZM168.029 17.0136C168.338 17.255 168.759 17.3757 169.292 17.3757C169.818 17.3757 170.237 17.255 170.55 17.0136C170.863 16.7722 171.022 16.4343 171.03 16.0007H170.443C170.436 16.2853 170.328 16.5091 170.118 16.6723C169.908 16.8362 169.633 16.9178 169.292 16.9178C168.944 16.9178 168.667 16.8362 168.461 16.6723C168.254 16.5091 168.148 16.2853 168.14 16.0007H167.554C167.562 16.4343 167.72 16.7722 168.029 17.0136ZM180.231 24.199L183.621 17.9193L182.831 17.9199L180.166 22.9736L177.565 17.9199H176.723L179.751 23.6662L179.538 24.0283C179.225 24.5618 178.824 24.8281 178.333 24.8281C178.12 24.8281 177.885 24.7782 177.63 24.6784L177.406 25.3177C177.732 25.4533 178.038 25.5207 178.322 25.5207C178.706 25.5207 179.06 25.4121 179.383 25.1957C179.707 24.9792 179.989 24.6467 180.231 24.199ZM190.274 25.3825V17.9206H189.506V21.5878C188.731 21.9432 187.971 22.1206 187.225 22.1206C186.571 22.1206 186.062 21.9607 185.7 21.6411C185.338 21.3208 185.157 20.8737 185.157 20.2977V17.9199H184.378V20.3827C184.378 21.1501 184.622 21.747 185.109 22.1738C185.596 22.6 186.276 22.8131 187.15 22.8131C187.911 22.8131 188.696 22.6385 189.506 22.2905V25.3825H190.274ZM198.078 25.3825V24.7L193.589 24.7007V21.9284H197.449V21.2567H193.589V18.6017H197.918V17.9193H192.8V25.3825H198.078ZM205.285 17.9193H199.826L199.825 25.3818H202.875C203.799 25.3818 204.508 25.1896 205.002 24.8059C205.496 24.4222 205.743 23.8712 205.743 23.1537C205.743 22.4645 205.514 21.9378 205.056 21.5757C204.597 21.2135 203.928 21.0321 203.046 21.0321H200.604V18.5909H205.285V17.9193ZM204.427 24.3588C204.075 24.6218 203.554 24.7533 202.865 24.7533H200.605V21.6613H202.865C203.569 21.6613 204.093 21.7874 204.438 22.0396C204.782 22.2925 204.955 22.6742 204.955 23.1861C204.955 23.7046 204.779 24.0958 204.427 24.3588ZM213.814 25.3825V17.9193H213.036V21.2452H208.366V17.9193H207.577V25.3825H208.366V21.9385H213.036V25.3825H213.814ZM221.474 21.1812C221.008 20.7833 220.335 20.5844 219.453 20.5844L217.108 20.5837V17.9186H216.33V25.3818H219.294C220.225 25.3818 220.938 25.1741 221.431 24.758C221.926 24.3426 222.173 23.733 222.173 22.9298C222.173 22.1617 221.94 21.579 221.474 21.1812ZM220.845 24.294C220.486 24.6002 219.961 24.7526 219.272 24.7526L217.108 24.7533V21.2243H219.272C220.679 21.2243 221.383 21.7962 221.383 22.9406C221.383 23.5374 221.203 23.9886 220.845 24.294ZM224.24 17.9186H223.462V25.3818H224.24V17.9186ZM227.534 17.9186H226.756V25.3818H227.47L232.247 19.2086V25.3818H233.025V17.9186H232.311L227.534 24.1018V17.9186ZM228.605 17.0129C228.915 17.2543 229.336 17.375 229.869 17.375C230.395 17.375 230.814 17.2543 231.126 17.0129C231.439 16.7715 231.599 16.4336 231.606 16H231.02C231.013 16.2846 230.904 16.5085 230.694 16.6717C230.485 16.8355 230.21 16.9171 229.868 16.9171C229.52 16.9171 229.243 16.8355 229.037 16.6717C228.831 16.5085 228.724 16.2846 228.717 16H228.131C228.138 16.4336 228.296 16.7715 228.605 17.0129ZM245.584 27.1298V24.6993L244.401 24.6987V17.9179H243.623V24.6987H239.113V17.9179H238.334V25.3811H244.848V27.1298H245.584ZM252.429 25.3818V24.6993L247.94 24.7V21.9277H251.799V21.256H247.94V18.601H252.269V17.9186H247.151V25.3818H252.429ZM260.414 25.3818V17.9186H259.636V21.2446H254.966V17.9186H254.177V25.3818H254.966V21.9378H259.636V25.3818H260.414ZM265.19 18.601H267.813V17.9186H261.789V18.601H264.412V25.3818H265.19V18.601ZM274.231 18.601C273.691 18.1458 272.945 17.9186 271.992 17.9186H269.199V25.3818H269.988V23.0256H271.992C272.944 23.0256 273.691 22.7996 274.231 22.3485C274.77 21.8967 275.041 21.2736 275.041 20.4771C275.041 19.6814 274.771 19.0562 274.231 18.601ZM273.667 21.8474C273.275 22.1711 272.71 22.3323 271.971 22.3323H269.989V18.601H271.971C272.711 18.601 273.275 18.7629 273.667 19.0859C274.058 19.4089 274.253 19.8729 274.253 20.4771C274.253 21.0672 274.058 21.5237 273.667 21.8474ZM102.475 49.6577C101.732 48.7176 100.66 48.0399 99.2611 47.6245C100.289 47.1214 101.087 46.4383 101.656 45.5751C102.224 44.7112 102.508 43.7111 102.508 42.5742C102.508 40.6718 101.765 39.207 100.278 38.1793C98.7917 37.1516 96.714 36.6377 94.0469 36.6377H83.3555V59.5945H94.67C97.534 59.5945 99.7365 59.026 101.278 57.889C102.819 56.7521 103.59 55.1673 103.59 53.1341C103.59 51.7563 103.218 50.5978 102.475 49.6577ZM93.587 46.1483H88.6351V40.5733H93.587C94.724 40.5733 95.5932 40.8141 96.1941 41.2949C96.7956 41.7757 97.0964 42.4649 97.0964 43.3611C97.0964 44.279 96.801 44.9736 96.2109 45.4436C95.6202 45.9136 94.7462 46.1483 93.587 46.1483ZM98.2118 52.7072C98.2118 54.675 96.9655 55.6589 94.4731 55.6589H88.6351V49.854H94.4731C96.9655 49.854 98.2118 50.8048 98.2118 52.7072ZM113.068 36.637H107.788V59.5938H112.806L123.76 44.6714V59.5938H129.007V36.637H124.022L113.068 51.5918V36.637ZM139.927 50.3456H143.601L149.569 59.5945H155.603L147.863 47.7223L155.374 36.637H149.766L143.732 45.9184H139.927V36.637H134.648V59.5938H139.927V50.3456ZM168.034 40.9658H175.38V36.637H155.473V40.9658H162.786V59.5938H168.034V40.9658ZM182.906 58.4461C184.819 59.4738 186.967 59.9877 189.35 59.9877C191.734 59.9877 193.876 59.4738 195.779 58.4461C197.681 57.4183 199.178 56.0028 200.271 54.1989C201.365 52.3956 201.911 50.3678 201.911 48.1154C201.911 45.8637 201.364 43.8359 200.271 42.032C199.178 40.228 197.681 38.8125 195.779 37.7848C193.876 36.7571 191.734 36.2432 189.35 36.2432C186.967 36.2432 184.819 36.7571 182.906 37.7848C180.994 38.8125 179.496 40.228 178.414 42.032C177.331 43.8359 176.79 45.8637 176.79 48.1154C176.79 50.3671 177.331 52.395 178.414 54.1989C179.496 56.0028 180.993 57.4183 182.906 58.4461ZM193.024 54.5266C191.931 55.1498 190.706 55.4613 189.35 55.4613C187.995 55.4613 186.77 55.1498 185.677 54.5266C184.585 53.9035 183.726 53.0343 183.103 51.9195C182.48 50.8048 182.168 49.537 182.168 48.1154C182.168 46.6945 182.48 45.4261 183.103 44.3113C183.726 43.1966 184.584 42.3273 185.677 41.7042C186.77 41.0811 187.995 40.7696 189.35 40.7696C190.707 40.7696 191.931 41.0811 193.024 41.7042C194.116 42.3273 194.975 43.1966 195.598 44.3113C196.221 45.4261 196.533 46.6945 196.533 48.1154C196.533 49.5363 196.221 50.8048 195.598 51.9195C194.975 53.0343 194.117 53.9035 193.024 54.5266ZM221.244 37.654C219.746 36.9756 217.981 36.637 215.948 36.637H206.011V59.5938H211.323V53.2642H215.948C217.981 53.2642 219.746 52.9311 221.244 52.2641C222.741 51.5972 223.895 50.6349 224.704 49.3779C225.513 48.1208 225.917 46.6507 225.917 44.9668C225.917 43.2613 225.513 41.7858 224.704 40.5396C223.895 39.2934 222.742 38.3317 221.244 37.654ZM219.292 47.9023C218.462 48.5915 217.248 48.9355 215.652 48.9355L211.323 48.9348V40.9658H215.652C217.248 40.9658 218.462 41.3104 219.292 41.9989C220.123 42.6875 220.539 43.6768 220.539 44.9668C220.539 46.2353 220.123 47.2138 219.292 47.9023ZM234.706 36.637H229.426L229.425 59.5938H234.443L245.397 44.6714V59.5938H250.644V36.637H245.659L234.706 51.5918V36.637ZM274.684 59.5938V36.637H264.78C262.768 36.637 261.02 36.9816 259.533 37.6702C258.046 38.3587 256.898 39.3426 256.089 40.6219C255.28 41.9005 254.875 43.4259 254.875 45.1968C254.875 46.9899 255.291 48.5255 256.122 49.8047C256.952 51.0833 258.144 52.0403 259.696 52.6742L254.908 59.5938H260.516L264.584 53.4935H269.437V59.5938H274.684ZM261.451 42.0158C262.25 41.3158 263.403 40.9658 264.911 40.9658L269.437 40.9665V49.2962H264.78C263.293 49.2962 262.167 48.9355 261.402 48.2139C260.636 47.4923 260.254 46.4653 260.254 45.1314C260.254 43.7536 260.653 42.7151 261.451 42.0158Z" fill="black"/>
</svg>
