<svg width="22" height="24" viewBox="0 0 22 24" fill="none" xmlns="http://www.w3.org/2000/svg">
<path fill-rule="evenodd" clip-rule="evenodd" d="M12.751 23.0016C16.3375 19.3736 19.4791 14.5989 21.0048 8.49621C21.456 6.68651 20.7233 5.64204 18.9591 5.13472C14.3498 3.95597 9.0679 3.60426 3.45725 4.9578C3.16501 5.02815 2.87062 5.10275 2.57622 5.18375C2.64714 5.58662 2.73094 6.00227 2.82764 6.42646L2.83623 6.42433C3.0941 7.60095 3.40138 8.66461 3.77743 9.70481C3.90851 10.0714 4.05033 10.4359 4.20075 10.8047C5.65552 14.5115 7.82801 17.8432 10.7311 20.6739C14.2079 17.0992 16.6834 12.8553 17.9383 8.04006C16.6641 7.72458 15.3834 7.49224 14.1005 7.34516C14.1435 7.21727 14.1865 7.08511 14.2294 6.95295C14.3756 6.49893 14.5088 6.04917 14.627 5.59514C15.9636 5.76354 17.298 6.0172 18.6238 6.35612C19.7111 6.67159 20.0507 7.07232 19.7692 8.19353C18.439 13.5182 15.7164 18.197 11.8571 22.1042C11.0384 22.8801 10.5184 22.9717 9.68032 22.1681C6.42266 19.0581 4.00951 15.362 2.4258 11.2374C2.18943 10.6278 1.9681 9.99471 1.76611 9.3531C1.4051 8.21058 1.10211 7.03395 0.887228 5.92554C0.126535 6.55222 -0.0518191 7.49224 0.257615 8.73495C1.63073 13.6312 4.22869 18.7171 8.79499 23.0783C10.1488 24.3722 11.4273 24.2634 12.7532 23.0016H12.751ZM12.2761 7.18956C9.84578 7.0638 7.41328 7.24498 5.00227 7.75016C4.83466 7.1853 4.68639 6.60764 4.55531 6.00441C7.29939 5.42036 10.0714 5.23278 12.837 5.42036C12.7424 5.76567 12.6436 6.0982 12.5404 6.42006C12.4588 6.67159 12.3707 6.92951 12.2761 7.18956ZM10.6967 18.0243C12.8843 15.4601 14.5582 12.5718 15.6391 9.38721C12.3062 8.79037 8.94756 8.79676 5.62759 9.45968C6.77293 12.6229 8.45762 15.5048 10.6967 18.0243Z" fill="#E6C887"/>
<path fill-rule="evenodd" clip-rule="evenodd" d="M12.5197 22.7757C16.5058 18.7449 19.3165 13.9127 20.6875 8.4196C21.0979 6.78042 20.464 5.90222 18.8717 5.44606C13.6027 4.09891 8.21342 4.04136 2.94444 5.41835C2.98312 5.62298 3.02395 5.82548 3.06692 6.02798L3.07552 6.02585L3.14858 6.35624C3.38925 7.45613 3.69439 8.53471 4.07688 9.59623C4.20796 9.96286 4.35408 10.3252 4.49806 10.6876C5.90985 14.2708 7.98779 17.4873 10.719 20.2136C13.9616 16.8095 16.2974 12.7978 17.5351 8.27252C16.3898 8.00182 15.2273 7.79718 14.0583 7.6629L13.6608 7.61813L13.7875 7.24298C13.8305 7.11508 13.8735 6.98506 13.9143 6.85503C14.0561 6.41166 14.1894 5.96403 14.3076 5.51427L14.3785 5.24143L14.66 5.27767C16.0202 5.44819 17.3697 5.70611 18.6977 6.04503L18.702 6.04716L18.7062 6.0493C19.9547 6.41166 20.3995 6.9744 20.0751 8.27252C18.732 13.6483 15.9794 18.3826 12.0792 22.3302L12.0749 22.3345L12.0706 22.3388C11.1294 23.2298 10.416 23.3299 9.44471 22.4027C6.18275 19.2864 3.72447 15.5518 2.11283 11.3548C1.87216 10.7281 1.64868 10.0929 1.44669 9.45128C1.15445 8.52405 0.898735 7.57976 0.690296 6.62695C0.333587 7.21953 0.387309 7.95705 0.561365 8.65621C2.08705 14.0917 4.89989 18.924 9.01064 22.8503C10.2355 24.0206 11.3185 23.9161 12.5133 22.7779L12.5197 22.7757ZM12.2576 7.51155C9.84439 7.38579 7.43124 7.56911 5.0675 8.06576L4.77311 8.12758L4.6893 7.84195C4.5174 7.2579 4.36698 6.66958 4.2359 6.07487L4.16713 5.7594L4.48516 5.69119C7.23139 5.10714 10.055 4.91104 12.8571 5.10075L13.2503 5.12633L13.1472 5.50361C13.0548 5.84253 12.9538 6.18145 12.8463 6.51611C12.7625 6.77829 12.6723 7.03834 12.5799 7.29626L12.4982 7.52008L12.2576 7.50729V7.51155ZM10.4525 18.2376C8.18763 15.6883 6.4793 12.7659 5.32322 9.56852L5.19643 9.21894L5.56389 9.14647C8.92039 8.47502 12.3285 8.46863 15.6957 9.074L16.0653 9.14007L15.945 9.49178C14.8512 12.7105 13.1536 15.6414 10.9425 18.2334L10.6996 18.5169L10.4525 18.2376Z" fill="#E6C887"/>
<path fill-rule="evenodd" clip-rule="evenodd" d="M13.3309 0.562679L12.7271 3.26338C11.3282 3.15467 9.92499 3.13975 8.5218 3.23354L7.91797 0.566943L8.96446 1.93115L9.79392 0.505127L10.6234 1.93115L11.4528 0.507259L12.2823 1.93115L13.3309 0.562679Z" fill="#E6C887"/>
<path fill-rule="evenodd" clip-rule="evenodd" d="M12.7743 22.7397C16.3994 19.0734 19.5754 14.2475 21.1161 8.07871C21.5738 6.24982 20.8325 5.19469 19.0489 4.68099C14.3902 3.48944 9.0525 3.13346 3.37954 4.50193C3.083 4.57441 2.78646 4.64901 2.48991 4.73001C2.56083 5.13714 2.64678 5.55706 2.74563 5.98551L2.75422 5.98338C3.01423 7.17279 3.32582 8.24924 3.70401 9.29797C3.83724 9.66673 3.97907 10.0355 4.13163 10.4085C5.60145 14.1558 7.79757 17.5237 10.7307 20.3821C14.2463 16.7691 16.7475 12.4804 18.0153 7.61403C16.726 7.29642 15.4324 7.06195 14.1367 6.91274C14.1797 6.78271 14.2248 6.65056 14.2678 6.51627C14.416 6.05798 14.5493 5.60182 14.6696 5.14354C16.0212 5.31406 17.3685 5.56985 18.7094 5.91303C19.8075 6.23277 20.1513 6.63777 19.8677 7.77176C18.5246 13.1518 15.7719 17.8818 11.8696 21.8316C11.0423 22.616 10.518 22.7077 9.66922 21.8977C6.37718 18.7536 3.93609 15.0191 2.33735 10.8498C2.09882 10.2337 1.87534 9.59426 1.66905 8.94413C1.30375 7.78882 0.998613 6.5994 0.781579 5.48032C0.012291 6.1134 -0.166064 7.06408 0.14552 8.31958C1.53368 13.267 4.15957 18.4083 8.7753 22.8164C10.1441 24.123 11.4356 24.0143 12.7743 22.7397ZM12.2951 6.75927C9.83898 6.63137 7.38069 6.81469 4.9439 7.32627C4.77414 6.755 4.62587 6.17309 4.49264 5.56132C7.26681 4.97088 10.0668 4.78117 12.8624 4.97088C12.7679 5.32046 12.6669 5.65724 12.5616 5.98124C12.4799 6.23703 12.3897 6.49495 12.2951 6.75927ZM10.6985 17.7091C12.9097 15.1172 14.6008 12.199 15.6946 8.98036C12.3252 8.37713 8.93216 8.38352 5.57566 9.05284C6.73389 12.2481 8.43578 15.1619 10.6985 17.7091Z" fill="#E6C887"/>
<path fill-rule="evenodd" clip-rule="evenodd" d="M12.5429 22.5095C16.572 18.436 19.4128 13.5505 20.7988 7.99987C21.2135 6.34364 20.571 5.45691 18.9637 4.99436C13.6388 3.63228 8.1915 3.57473 2.86665 4.96665C2.90533 5.17341 2.94831 5.37804 2.99129 5.58267L2.99988 5.58054L3.07294 5.9152C3.31791 7.02788 3.6252 8.11711 4.01199 9.18929C4.14522 9.56018 4.29349 9.92468 4.43746 10.2913C5.8643 13.9129 7.96587 17.1635 10.725 19.9196C14.002 16.4793 16.3636 12.425 17.6142 7.8528C16.456 7.57995 15.2827 7.37106 14.1008 7.23677L13.699 7.18988L13.8279 6.81046C13.8709 6.68043 13.9139 6.55041 13.9569 6.41825C14.1008 5.97062 14.2341 5.51873 14.3544 5.06257L14.4275 4.7876L14.7133 4.82383C16.0885 4.99649 17.4509 5.25867 18.7939 5.59973L18.7982 5.60186L18.8025 5.60399C20.0639 5.97062 20.513 6.53975 20.1864 7.8528C18.8305 13.2862 16.0477 18.0694 12.1046 22.0618L12.1003 22.0661L12.096 22.0704C11.144 22.972 10.4242 23.0722 9.44213 22.1343C6.14365 18.9839 3.65958 15.2088 2.0329 10.9692C1.79008 10.3339 1.56445 9.69447 1.35816 9.04648C1.06162 8.10858 0.803757 7.15364 0.595318 6.1923C0.234311 6.79127 0.290182 7.53732 0.464238 8.24287C2.00496 13.7359 4.85004 18.6194 9.00377 22.5883C10.2437 23.7714 11.3374 23.6648 12.5451 22.5159L12.5429 22.5095ZM12.2786 7.0833C9.83967 6.9554 7.40072 7.14085 5.0112 7.6439L4.71466 7.70572L4.62871 7.41795C4.45465 6.82751 4.30208 6.2328 4.171 5.6317L4.10224 5.31409L4.42242 5.24588C7.19658 4.65544 10.0524 4.4572 12.8824 4.64904L13.28 4.67675L13.1747 5.05831C13.0801 5.40149 12.9791 5.74254 12.8717 6.08146C12.7857 6.34577 12.6955 6.61009 12.6009 6.87014L12.5193 7.09822L12.2765 7.08543L12.2786 7.0833ZM10.4542 17.9223C8.16572 15.3453 6.43804 12.3909 5.26907 9.16158L5.14013 8.80774L5.51189 8.73313C8.90492 8.05529 12.3495 8.0489 15.7533 8.65853L16.1272 8.72461L16.0069 9.08058C14.9024 12.3355 13.1854 15.2962 10.9506 17.9159L10.7057 18.2037L10.4542 17.9223Z" fill="#E6C887"/>
<path fill-rule="evenodd" clip-rule="evenodd" d="M13.3577 0.0575524L12.7474 2.78596C11.3335 2.67512 9.91523 2.66233 8.49699 2.75612L7.88672 0.0618156L8.94395 1.44094L9.782 0L10.6201 1.44094L11.4581 0L12.2962 1.44094L13.3555 0.0575524H13.3577Z" fill="#E6C887"/>
</svg>
