<svg width="93" height="93" viewBox="0 0 93 93" fill="none" xmlns="http://www.w3.org/2000/svg">
<path d="M46.5421 2C71.0604 2 90.9358 21.8754 90.9358 46.3937C90.9358 70.912 71.0604 90.7874 46.5421 90.7874C22.0238 90.7874 2.14844 70.9113 2.14844 46.3937C2.14844 21.8754 22.0246 2 46.5421 2Z" fill="url(#paint0_linear_240_2)" stroke="url(#paint1_linear_240_2)" stroke-width="4"/>
<path fill-rule="evenodd" clip-rule="evenodd" d="M53.0666 80.2553C62.9294 70.2784 71.5689 57.1478 75.7645 40.3653C77.0055 35.3886 74.9904 32.5162 70.1388 31.1211C57.4632 27.8795 42.9379 26.9123 27.5085 30.6346C26.7048 30.828 25.8952 31.0332 25.0856 31.2559C25.2807 32.3638 25.5111 33.5069 25.777 34.6734L25.8007 34.6675C26.5098 37.9033 27.3549 40.8284 28.389 43.689C28.7495 44.6972 29.1395 45.6996 29.5531 46.7137C33.5538 56.9075 39.5282 66.0696 47.5118 73.8541C57.0732 64.0238 63.8808 52.3528 67.3318 39.1108C63.8276 38.2433 60.3056 37.6043 56.7777 37.1999C56.8959 36.8482 57.0141 36.4847 57.1322 36.1213C57.5341 34.8727 57.9005 33.6359 58.2255 32.3873C61.9011 32.8504 65.5708 33.5479 69.2169 34.48C72.2071 35.3475 73.1408 36.4496 72.3666 39.5329C68.7087 54.1758 61.2215 67.0426 50.6083 77.7875C48.3568 79.9212 46.9267 80.1732 44.6221 77.9633C35.6634 69.4108 29.0272 59.2464 24.672 47.9036C24.022 46.2272 23.4133 44.4862 22.8578 42.7218C21.865 39.5798 21.0318 36.344 20.4409 33.2959C18.3489 35.0193 17.8585 37.6043 18.7094 41.0218C22.4855 54.4865 29.63 68.4729 42.1874 80.4663C45.9103 84.0245 49.4264 83.7255 53.0725 80.2553H53.0666ZM51.7606 36.772C45.0771 36.4261 38.3877 36.9244 31.7573 38.3136C31.2964 36.7602 30.8887 35.1717 30.5282 33.5128C38.0745 31.9066 45.6976 31.3908 53.303 31.9066C53.0429 32.8562 52.7711 33.7707 52.4875 34.6558C52.2629 35.3475 52.0206 36.0568 51.7606 36.772ZM47.4172 66.5678C53.433 59.516 58.0364 51.5732 61.0088 42.8155C51.8433 41.1742 42.607 41.1918 33.477 43.0148C36.6267 51.7139 41.2596 59.6391 47.4172 66.5678Z" fill="#610944" fill-opacity="0.22"/>
<path fill-rule="evenodd" clip-rule="evenodd" d="M52.4344 79.634C63.3963 68.5492 71.1258 55.2603 74.8959 40.1543C76.0246 35.6465 74.2814 33.2314 69.9025 31.977C55.4127 28.2723 40.592 28.114 26.1021 31.9008C26.2085 32.4635 26.3208 33.0204 26.439 33.5773L26.4626 33.5714L26.6635 34.48C27.3254 37.5047 28.1645 40.4708 29.2164 43.39C29.5769 44.3983 29.9787 45.3948 30.3746 46.3913C34.2571 56.2451 39.9715 65.0907 47.4823 72.588C56.3996 63.2266 62.8231 52.1946 66.2269 39.7498C63.0772 39.0054 59.8802 38.4426 56.6655 38.0733L55.5723 37.9502L55.9209 36.9185C56.0391 36.5668 56.1573 36.2092 56.2696 35.8517C56.6596 34.6324 57.026 33.4014 57.351 32.1645L57.546 31.4142L58.3201 31.5139C62.0608 31.9828 65.7719 32.6921 69.4239 33.6242L69.4357 33.63L69.4475 33.6359C72.8808 34.6324 74.1041 36.1799 73.2118 39.7498C69.5184 54.5334 61.9485 67.5527 51.2229 78.4088L51.2111 78.4206L51.1993 78.4323C48.611 80.8825 46.6491 81.1581 43.978 78.6081C35.0076 70.0381 28.2473 59.7681 23.8152 48.2261C23.1534 46.5027 22.5388 44.7558 21.9833 42.9914C21.1796 40.4415 20.4764 37.8447 19.9032 35.2244C18.9222 36.854 19.07 38.8823 19.5486 40.8049C23.7443 55.7527 31.4797 69.0416 42.7843 79.8391C46.1527 83.0573 49.131 82.7701 52.4166 79.6398L52.4344 79.634ZM51.7134 37.6571C45.0772 37.3113 38.4409 37.8154 31.9406 39.1812L31.131 39.3512L30.9006 38.5657C30.4278 36.9596 30.0142 35.3417 29.6537 33.7062L29.4646 32.8387L30.3392 32.6511C37.8914 31.0449 45.6563 30.5056 53.3621 31.0273L54.4436 31.0977L54.1599 32.1352C53.9058 33.0673 53.6281 33.9993 53.3326 34.9196C53.1021 35.6406 52.8539 36.3558 52.5998 37.0651L52.3753 37.6806L51.7134 37.6454V37.6571ZM46.7495 67.154C40.521 60.1432 35.8231 52.1066 32.6438 43.3138L32.2952 42.3525L33.3057 42.1532C42.5361 40.3067 51.9084 40.2891 61.1684 41.9539L62.1849 42.1356L61.8539 43.1028C58.8461 51.9542 54.1776 60.0143 48.0969 67.1423L47.4291 67.922L46.7495 67.154Z" fill="black" fill-opacity="0.290196"/>
<path fill-rule="evenodd" clip-rule="evenodd" d="M54.6592 18.5474L52.9986 25.9744C49.1516 25.6754 45.2928 25.6344 41.434 25.8923L39.7734 18.5591L42.6513 22.3107L44.9323 18.3891L47.2134 22.3107L49.4944 18.395L51.7754 22.3107L54.6592 18.5474Z" fill="black" fill-opacity="0.290196"/>
<path fill-rule="evenodd" clip-rule="evenodd" d="M53.1296 79.5345C63.0988 69.4521 71.8328 56.1808 76.0699 39.2166C77.3286 34.1871 75.2898 31.2855 70.385 29.8728C57.5735 26.596 42.8946 25.617 27.2938 29.3804C26.4783 29.5797 25.6628 29.7848 24.8473 30.0076C25.0423 31.1272 25.2787 32.282 25.5505 33.4602L25.5742 33.4544C26.2892 36.7253 27.1461 39.6855 28.1861 42.5696C28.5525 43.5837 28.9425 44.5978 29.3621 45.6236C33.4041 55.9288 39.4435 65.1905 47.5098 73.0513C57.1776 63.1154 64.0561 51.3213 67.5426 37.9387C63.997 37.0653 60.4395 36.4205 56.8762 36.0101C56.9944 35.6526 57.1185 35.2891 57.2367 34.9198C57.6444 33.6595 58.0108 32.4051 58.3417 31.1448C62.0587 31.6137 65.7639 32.3172 69.4514 33.2609C72.4711 34.1402 73.4166 35.254 72.6365 38.3725C68.9432 53.1678 61.3732 66.1753 50.6418 77.0374C48.3667 79.1945 46.9248 79.4466 44.5906 77.2191C35.5374 68.5728 28.8243 58.3028 24.4278 46.837C23.7718 45.1429 23.1572 43.3844 22.5899 41.5965C21.5853 38.4194 20.7462 35.1484 20.1494 32.071C18.0338 33.8119 17.5433 36.4263 18.4002 39.879C22.2176 53.4844 29.4389 67.6232 42.1323 79.7455C45.8965 83.3389 49.4481 83.0399 53.1296 79.5345ZM51.8118 35.5881C45.0574 35.2364 38.2971 35.7405 31.5958 37.1473C31.129 35.5764 30.7213 33.9761 30.3549 32.2937C37.9839 30.67 45.6838 30.1483 53.3719 30.67C53.1119 31.6313 52.8342 32.5575 52.5446 33.4485C52.32 34.1519 52.0719 34.8612 51.8118 35.5881ZM47.4212 65.7005C53.5019 58.5725 58.1526 50.5476 61.1605 41.6961C51.8946 40.0372 42.5637 40.0548 33.3332 41.8955C36.5184 50.6824 41.1986 58.6956 47.4212 65.7005Z" fill="#693056"/>
<path fill-rule="evenodd" clip-rule="evenodd" d="M52.4933 78.9013C63.5734 67.6993 71.3856 54.2639 75.1972 38.9996C76.3377 34.4449 74.5708 32.0064 70.1506 30.7343C55.5071 26.9886 40.5268 26.8303 25.8834 30.6581C25.9897 31.2267 26.1079 31.7895 26.2261 32.3522L26.2497 32.3463L26.4507 33.2667C27.1243 36.3266 27.9694 39.322 29.0331 42.2705C29.3994 43.2905 29.8072 44.2928 30.2031 45.3011C34.1269 55.2604 39.9063 64.1997 47.494 71.7791C56.5058 62.3181 63.0002 51.1688 66.4395 38.5951C63.2543 37.8448 60.0278 37.2703 56.7776 36.901L55.6726 36.7721L56.0271 35.7286C56.1453 35.3711 56.2635 35.0135 56.3817 34.6501C56.7776 33.4191 57.144 32.1763 57.4749 30.9219L57.6758 30.1657L58.4618 30.2654C62.2438 30.7402 65.9904 31.4612 69.6837 32.3991L69.6955 32.405L69.7074 32.4108C73.1762 33.4191 74.4112 34.9842 73.513 38.5951C69.7842 53.537 62.1315 66.691 51.2878 77.6703L51.276 77.682L51.2642 77.6938C48.6463 80.1733 46.6667 80.4488 43.9661 77.8696C34.8952 69.2058 28.0639 58.8244 23.5905 47.1651C22.9227 45.4183 22.3023 43.6597 21.735 41.8777C20.9195 39.2985 20.2103 36.6724 19.6371 34.0287C18.6444 35.6759 18.798 37.7275 19.2767 39.6678C23.5137 54.7739 31.3377 68.2034 42.7606 79.1182C46.1703 82.3715 49.1782 82.0784 52.4992 78.9189L52.4933 78.9013ZM51.7665 36.479C45.0593 36.1272 38.3522 36.6372 31.7809 38.0206L30.9654 38.1906L30.729 37.3993C30.2504 35.7755 29.8308 34.1401 29.4703 32.487L29.2812 31.6136L30.1617 31.426C37.7908 29.8023 45.6443 29.2571 53.427 29.7847L54.5202 29.8609L54.2307 30.9102C53.9707 31.8539 53.6929 32.7918 53.3975 33.7239C53.1611 34.4508 52.9129 35.1776 52.6529 35.8928L52.4283 36.52L51.7606 36.4848L51.7665 36.479ZM46.7494 66.2866C40.4559 59.1996 35.7048 51.075 32.49 42.1943L32.1355 41.2212L33.1578 41.016C42.4887 39.152 51.9615 39.1344 61.3219 40.8109L62.3502 40.9926L62.0192 41.9715C58.9818 50.9226 54.2602 59.0647 48.1145 66.269L47.4408 67.0603L46.7494 66.2866Z" fill="#693056"/>
<path fill-rule="evenodd" clip-rule="evenodd" d="M54.7367 17.1583L53.0584 24.6615C49.1701 24.3566 45.2699 24.3215 41.3697 24.5794L39.6914 17.17L42.5988 20.9626L44.9035 17L47.2081 20.9626L49.5128 17L51.8175 20.9626L54.7308 17.1583H54.7367Z" fill="#693056"/>
<defs>
<linearGradient id="paint0_linear_240_2" x1="46.5421" y1="0" x2="46.5421" y2="92.7874" gradientUnits="userSpaceOnUse">
<stop stop-color="white"/>
<stop offset="1" stop-color="white"/>
</linearGradient>
<linearGradient id="paint1_linear_240_2" x1="46.5421" y1="0" x2="46.5421" y2="92.7874" gradientUnits="userSpaceOnUse">
<stop stop-color="#64184B"/>
<stop offset="1" stop-color="#9D668B"/>
</linearGradient>
</defs>
</svg>
