<svg width="42" height="42" viewBox="0 0 42 42" fill="none" xmlns="http://www.w3.org/2000/svg">
<path d="M21 42C32.598 42 42 32.598 42 21C42 9.40202 32.598 0 21 0C9.40202 0 0 9.40202 0 21C0 32.598 9.40202 42 21 42Z" fill="#672250"/>
<path d="M14.5198 22.9145H11V19.2906H14.5198V9.06838L20.9784 9C23.5983 9 25.7512 9.53561 27.4371 10.6068C29.1457 11.6781 30 13.4217 30 15.8376C30 17.114 29.7494 18.2308 29.2482 19.188C28.747 20.1225 28.0522 20.8519 27.1637 21.3761C26.298 21.9003 25.3411 22.2877 24.2932 22.5385C23.268 22.7892 22.1631 22.9145 20.9784 22.9145H18.518V25.1368H24.259V28.7607H18.518V33H14.5198V28.7607H11V25.1368H14.5198V22.9145ZM21.1835 12.6581H18.518V19.2906H20.9101C24.2134 19.2906 25.8651 18.1738 25.8651 15.9402C25.8651 15.2792 25.7284 14.7208 25.455 14.265C25.2044 13.8091 24.8399 13.4672 24.3615 13.2393C23.9059 13.0114 23.4275 12.8632 22.9263 12.7949C22.4251 12.7037 21.8441 12.6581 21.1835 12.6581Z" fill="white"/>
</svg>
