<svg width="63" height="19" viewBox="0 0 63 19" fill="none" xmlns="http://www.w3.org/2000/svg">
<path fill-rule="evenodd" clip-rule="evenodd" d="M5.51538 11.1077C5.44617 10.9237 5.34709 10.7326 5.2712 10.5345C5.19472 10.3348 5.13063 10.1497 5.0641 9.93862C4.06345 6.76351 6.21183 3.65853 9.65237 3.65841C10.6216 3.65838 11.5445 3.9281 12.215 4.34068C12.4151 4.46383 12.7527 4.69428 12.926 4.85136C14.5837 6.35316 14.8591 8.46633 14.0288 10.547L13.7894 11.1077C13.0002 11.1077 12.1305 11.2689 11.5213 11.721C10.471 12.5004 10.2923 13.7284 10.1932 15.1725H9.11152C9.09583 14.8932 9.05396 14.5823 9.02654 14.3004C8.82084 12.1849 7.70028 11.1077 5.51538 11.1077H5.51538ZM0.929699 9.17131C0.929699 10.0966 0.956028 10.6234 1.17744 11.5055C1.37071 12.2754 1.74683 13.2743 2.18573 13.9339C2.22071 13.9865 2.25076 14.0381 2.28702 14.0943L3.47235 15.5781L3.74283 15.831C3.79787 15.8869 3.8201 15.9066 3.88055 15.955C4.19315 16.2052 4.22685 16.2587 4.61803 16.5433C5.03638 16.8477 5.49558 17.106 5.96567 17.324C6.09274 17.3829 6.19107 17.4308 6.32776 17.4853C6.781 17.666 7.05179 17.7628 7.53448 17.8835C7.83077 17.9577 8.10168 18.0076 8.42336 18.0588C9.47212 18.2258 10.7656 18.1331 11.7425 17.8906C12.1681 17.785 12.912 17.5397 13.316 17.3358C14.5328 16.7215 15.0619 16.3426 16.0682 15.3255C16.1198 15.2734 16.1362 15.2384 16.1899 15.1855C16.2434 15.1329 16.2631 15.1008 16.312 15.0459L16.7771 14.4468C17.2292 13.7918 17.7093 12.92 17.9412 12.1568C18.3415 10.8399 18.4929 9.60991 18.2979 8.21919C18.2298 7.73353 18.0655 6.97255 17.8814 6.50729L17.7371 6.12825C17.4918 5.5129 17.171 4.95612 16.7979 4.41574C16.4949 3.97678 16.1976 3.63565 15.8236 3.26171C15.7323 3.17034 15.6539 3.09033 15.5623 2.99968C15.5108 2.94872 15.4757 2.93075 15.4225 2.87782C15.217 2.67347 14.6019 2.22258 14.37 2.08115C14.2529 2.0098 14.1585 1.94164 14.0365 1.87377L13.3393 1.50687C13.2218 1.44767 13.1009 1.39774 12.9771 1.34573C12.8465 1.29089 12.7189 1.24062 12.5855 1.19646C12.3194 1.10837 12.0653 1.02108 11.7702 0.947565C10.4106 0.60875 8.92262 0.59919 7.56243 0.940633C7.153 1.04341 6.7504 1.16486 6.36254 1.32828C5.51648 1.68476 4.58547 2.21849 3.90862 2.85189C3.71841 3.02988 3.55078 3.15853 3.35873 3.36617L2.8706 3.92476C2.82514 3.97552 2.79953 4.01857 2.75602 4.07186C2.5173 4.36422 2.30447 4.70508 2.10835 5.02916C1.96707 5.26263 1.85849 5.48171 1.74388 5.72886C1.49319 6.26949 1.33153 6.70948 1.18437 7.29767C1.11024 7.59396 1.06029 7.86487 1.00908 8.18655C0.983129 8.34959 0.981097 8.49153 0.957098 8.65793C0.934578 8.8141 0.929688 9.00399 0.929688 9.17132L0.929699 9.17131Z" fill="#00AF00"/>
<path fill-rule="evenodd" clip-rule="evenodd" d="M40.3555 14.998H42.7978C42.8152 14.9235 43.7895 13.413 43.9249 13.2117L44.204 12.7756C44.2563 12.6978 44.2977 12.6293 44.3471 12.5523C44.3731 12.5119 44.3853 12.4861 44.413 12.4438L44.7747 11.8809C44.8242 11.797 44.8642 11.7409 44.9161 11.6559L47.1871 8.10022C47.2172 8.05556 47.2256 8.03881 47.2537 7.99233C47.2641 7.97511 47.2757 7.95697 47.2879 7.9393L47.3336 7.88033V14.998H49.776V3.83301H47.3162C47.2967 3.91638 46.2109 5.58952 46.0635 5.82519L45.7776 6.27194C45.7275 6.352 45.6835 6.41572 45.6358 6.49658L44.8636 7.71307C44.834 7.75818 44.8117 7.78805 44.7874 7.82881C44.7397 7.90873 44.6939 7.97404 44.6462 8.05396C44.6247 8.08999 44.6007 8.1238 44.5771 8.15928C44.3205 8.54467 44.0574 8.99418 43.7994 9.38782L42.8216 10.9221C42.798 10.9526 42.8117 10.9348 42.7978 10.9507V3.83301H40.3555V14.998L40.3555 14.998Z" fill="#191919"/>
<path fill-rule="evenodd" clip-rule="evenodd" d="M5.51419 11.1075C7.69909 11.1075 8.81965 12.1847 9.02535 14.3001C9.05278 14.5821 9.09465 14.8929 9.11033 15.1723H10.192C10.2911 13.7282 10.4699 12.5002 11.5201 11.7208C12.1293 11.2686 12.999 11.1075 13.7882 11.1075L14.0276 10.5467C14.8579 8.46612 14.5826 6.35295 12.9249 4.85115C12.7515 4.69407 12.414 4.46362 12.2138 4.34047C11.5434 3.92789 10.6204 3.65817 9.65118 3.6582C6.21064 3.65832 4.06226 6.7633 5.06291 9.93842C5.12944 10.1495 5.19353 10.3346 5.27001 10.5343C5.3459 10.7324 5.44498 10.9235 5.51419 11.1075H5.51419Z" fill="white"/>
<path fill-rule="evenodd" clip-rule="evenodd" d="M20.8164 7.98509V8.19444H23.346C23.346 6.8087 24.2547 5.92654 25.5441 5.92654C25.833 5.92654 26.0974 5.98232 26.3184 6.05936C27.4406 6.45038 27.7608 7.8308 27.1168 8.65063C26.6303 9.26997 25.8245 9.62104 25.1255 9.97393C25.0517 10.0112 24.9723 10.0412 24.8986 10.0785C24.8168 10.1198 24.75 10.1473 24.6601 10.1889C24.3547 10.3305 24.0529 10.4722 23.7447 10.5994L22.3167 11.1602C22.1987 11.207 20.918 11.6576 20.8164 11.6661V14.9981H30.0624V12.7302H24.2706L24.729 12.5257C24.8874 12.458 25.0327 12.3963 25.1893 12.3231C25.347 12.2495 25.4871 12.1884 25.6427 12.1136L26.1082 11.8987C26.2611 11.8217 26.4083 11.7579 26.5559 11.6834C26.6296 11.6462 26.709 11.6161 26.7828 11.5789L27.8763 10.9802C28.2838 10.7388 28.651 10.4334 28.9854 10.1006C29.0232 10.063 29.0249 10.0589 29.058 10.0161L29.2949 9.72964C29.6445 9.26437 29.9752 8.53715 29.9752 7.72341C29.9752 6.97665 29.9077 6.41612 29.5974 5.79847C29.0313 4.672 27.9233 3.96682 26.6733 3.75062C25.2927 3.51184 23.7369 3.70528 22.6062 4.4889C22.5509 4.52719 22.4945 4.56514 22.4441 4.60593C22.08 4.90067 21.9108 5.059 21.6237 5.44286C21.1166 6.1208 20.8164 7.12803 20.8164 7.98509L20.8164 7.98509Z" fill="#191919"/>
<path fill-rule="evenodd" clip-rule="evenodd" d="M50.8242 9.18852C50.8242 10.3141 50.9056 10.8921 51.3051 11.9001C51.5222 12.448 51.9989 13.1494 52.4159 13.5631L52.6786 13.8064C52.7206 13.8416 52.732 13.8459 52.7737 13.8857C52.9273 14.0324 53.4061 14.3509 53.6039 14.4512L54.0693 14.6835C54.7025 14.9704 55.6531 15.1723 56.3544 15.1723C57.247 15.1723 58.0523 15.1137 58.8193 14.811C58.8971 14.7803 58.9551 14.7601 59.0335 14.7287C59.1172 14.6952 59.1622 14.6728 59.2386 14.6372C59.5853 14.4757 60.0903 14.1898 60.3538 13.938C60.4119 13.8825 60.4526 13.8575 60.5108 13.7985C60.666 13.6416 60.8103 13.5058 60.9546 13.3351C61.4379 12.7632 61.764 12.058 61.9475 11.3274C61.9781 11.2053 62.0416 10.9366 62.0416 10.8109H59.5469C59.4887 10.8109 59.4946 10.8514 59.4782 10.8993C59.2294 11.6246 58.7487 12.1423 58.0981 12.5198C57.9624 12.5986 57.8153 12.6518 57.6628 12.7125C56.6969 13.0966 55.4919 12.8873 54.6671 12.2714C54.6206 12.2367 54.5955 12.2148 54.5499 12.1793C54.4986 12.1393 54.4826 12.1179 54.438 12.0819C54.3097 11.9787 54.1303 11.7761 54.0265 11.6385C53.8153 11.3585 53.7045 11.1696 53.5581 10.8335C53.2581 10.1448 53.2024 9.38858 53.3522 8.64608C53.4693 8.06502 53.8039 7.38454 54.2213 6.9508C54.8529 6.29468 55.7051 5.92624 56.6335 5.92624C57.6128 5.92624 58.4539 6.34758 58.9788 7.01769C59.1024 7.17555 59.2648 7.41358 59.3426 7.59594L59.4782 7.93136C59.4946 7.97922 59.4886 8.01969 59.5469 8.01969H62.0416C62.0416 7.80839 61.8884 7.27237 61.8171 7.05784C61.7261 6.78372 61.5836 6.45542 61.4451 6.22615C61.2662 5.93017 61.0728 5.60617 60.8247 5.36371C60.758 5.29852 60.704 5.21511 60.6153 5.13697C60.4507 4.99208 60.2001 4.76993 60.0321 4.65601C59.3597 4.20012 58.7362 3.94164 57.9114 3.7761C56.3688 3.46651 54.489 3.72377 53.1896 4.62815C53.0077 4.7548 52.7616 4.93793 52.6082 5.09345L52.1031 5.61761C51.3203 6.54392 50.8242 7.95645 50.8242 9.18853L50.8242 9.18852Z" fill="#191919"/>
<path fill-rule="evenodd" clip-rule="evenodd" d="M31.4609 14.998H33.9033V6.1009H39.1369V3.83301H31.4609V14.998Z" fill="#191919"/>
</svg>
