<svg width="59" height="24" viewBox="0 0 59 24" fill="none" xmlns="http://www.w3.org/2000/svg">
<path fill-rule="evenodd" clip-rule="evenodd" d="M7.86002 11.2359C6.09636 11.3319 5.0784 11.0948 4.23667 10.1386C2.73804 8.43627 2.82648 4.60812 4.22814 2.86756C5.11169 1.77037 6.45209 1.65598 7.87415 1.80251L7.86002 11.2359ZM1.20454 9.20206C1.2844 9.26898 1.2118 9.12459 1.28641 9.31542L1.43072 9.67982C1.5916 10.0148 1.69733 10.2787 1.92415 10.5854C1.95953 10.6332 1.96572 10.6461 2.00704 10.6989L2.13078 10.8434C2.91787 11.8574 3.55924 12.0976 3.70137 12.2951C3.89034 12.3265 4.11327 12.5357 4.35614 12.5895C4.30702 12.8386 3.34479 14.5 3.19493 14.7692L0.275826 20.0512C-0.11917 20.7563 0.417878 20.6485 1.02962 20.6485C1.36862 20.6484 2.42807 20.737 2.61396 20.5624L5.40254 15.1546C5.58809 14.7867 5.77116 14.4346 5.95594 14.0701L6.50745 13.0098C6.68801 12.9952 7.8082 12.9155 7.84743 13.0533L7.87193 13.1508C7.87517 13.1747 7.87645 13.2381 7.87688 13.2643L7.87415 14.9372C7.87466 15.8958 7.79493 20.3158 7.93877 20.6111C8.15906 20.6793 9.60873 20.6712 9.90957 20.6278C10.0645 20.3947 9.99319 19.834 9.99293 19.4826L9.99302 10.858C9.9931 7.58165 9.99062 4.30528 9.99297 1.02896C9.99383 -0.179509 10.1682 0.0189706 8.52764 0.0189706C6.26975 0.0190133 4.47092 -0.177546 2.73582 1.57006C1.36947 2.94623 0.832039 5.00999 0.876174 7.08951C0.902809 8.34364 1.18072 8.82379 1.20458 9.20206H1.20454Z" fill="#FF0000"/>
<path fill-rule="evenodd" clip-rule="evenodd" d="M24.2773 18.9019C24.3347 18.7067 24.4623 18.5321 24.565 18.3451C24.7733 17.9659 25.1335 17.1239 25.276 16.7233C26.1287 14.3253 26.4852 11.2068 26.4721 8.60108L28.2223 8.59693L28.2243 18.9013L24.2774 18.9019L24.2773 18.9019ZM23.5976 22.9891L23.5897 20.6215C24.4579 20.6704 25.5745 20.6211 26.5146 20.6194C26.9772 20.6186 29.2017 20.5616 29.4613 20.6325C29.5558 20.7006 29.5099 21.8184 29.5099 21.93C29.5099 22.359 29.4977 22.821 29.5224 23.2354C29.56 23.256 29.5335 23.2312 29.5694 23.2641C29.6081 23.2994 29.6056 23.2992 29.6365 23.3353C31.6022 23.2818 31.4153 23.6838 31.4153 21.9688C31.4153 21.4508 31.4153 20.9328 31.4153 20.4149C31.4153 20.0724 31.5069 19.1592 31.332 18.9387C30.8184 18.7352 30.3361 19.2297 30.3415 18.2394L30.3424 8.44912C30.3424 8.21479 30.4032 7.01046 30.2756 6.90047C30.1883 6.82513 25.0058 6.82701 24.5471 6.87358C24.3617 7.18397 24.4563 8.11059 24.4577 8.56569C24.4624 10.131 24.3652 11.9818 24.1466 13.5037C23.9173 15.0996 23.342 17.5885 22.5132 18.8942L21.7749 18.9304C21.6012 19.137 21.6875 19.6819 21.6875 19.9875C21.6875 20.363 21.6877 20.7386 21.6878 21.1141C21.689 23.7512 21.3925 23.3275 22.8627 23.3316C23.2316 23.3327 23.5836 23.3713 23.5976 22.9891H23.5976Z" fill="#24181E"/>
<path fill-rule="evenodd" clip-rule="evenodd" d="M14.7985 20.6068C14.915 20.5869 14.8916 20.6152 14.8865 20.4977C14.8375 18.7237 14.8901 16.3344 14.8912 14.4319C14.8913 14.3658 14.8854 14.2964 14.8851 14.2345C14.8851 14.2285 14.889 14.1234 14.8892 14.1228C14.896 14.0965 14.8895 14.0371 14.9906 14.0184L17.6968 14.0109C17.8005 14.0106 18.0095 13.9743 18.0757 14.0578C18.154 14.2075 18.1017 16.8436 18.1017 17.268C18.1017 17.747 18.028 20.3245 18.1473 20.5456C18.2287 20.6294 18.9372 20.6025 19.0564 20.603C19.3722 20.6041 19.742 20.582 20.0487 20.612C20.2036 20.5826 20.1927 20.5034 20.1952 20.3008L20.1927 19.0162C20.1932 17.8504 20.2326 7.30926 20.1809 7.01146C20.0842 7.01146 20.0968 7.03639 20.1279 6.94782C20.0491 6.97974 20.0597 6.99532 20.0847 6.9138C19.5428 6.88302 18.6691 6.95998 18.184 6.88729L18.1344 6.9059L18.1079 6.94969C18.0477 7.9289 18.0968 10.412 18.098 11.6736L18.094 12.2079C18.0927 12.2153 18.0879 12.2285 18.0866 12.2342L18.0663 12.2774C17.9963 12.3698 17.4466 12.3296 17.3082 12.3297C16.7572 12.33 15.2841 12.3611 14.9172 12.312C14.8644 12.1079 14.8589 7.4371 14.8845 6.94577C14.572 6.84239 13.2414 6.88631 12.8719 6.92575C12.8097 7.29539 12.8438 9.77046 12.8445 10.3527C12.8484 13.6495 12.7684 17.4011 12.8623 20.5907C13.0205 20.5708 13.5808 20.6016 13.8118 20.6015C14.1405 20.6013 14.4723 20.6005 14.7986 20.6068L14.7985 20.6068Z" fill="#24181E"/>
<path fill-rule="evenodd" clip-rule="evenodd" d="M34.8834 12.5941C34.8182 11.9957 35.0854 10.51 35.2418 9.94883C35.4483 9.20745 35.8073 8.35928 36.5377 8.25257C37.4119 8.12486 37.8042 9.07859 38.0012 9.78941C38.1729 10.4088 38.3428 11.7736 38.2834 12.4905C37.6918 12.5042 37.0929 12.4877 36.5002 12.4926C35.9276 12.4974 35.4116 12.5795 34.8834 12.594L34.8834 12.5941ZM39.4642 8.17779C39.3919 8.17779 39.4049 8.19508 39.4258 8.1258L39.3741 8.05926C39.3113 8.06622 39.3313 8.0745 39.3498 8.00693L39.2992 7.94329L39.2263 7.8586C39.2029 7.83005 39.1991 7.82557 39.1751 7.79445C39.1307 7.737 39.1084 7.70656 39.0641 7.6352C38.994 7.59512 39.0529 7.65218 38.9761 7.56404C38.6561 7.19658 38.8463 7.40867 38.5463 7.18189C38.4782 7.1305 38.5317 7.17698 38.4927 7.1168C38.359 7.0701 38.4122 7.07488 38.3804 7.03387C38.3116 7.05525 38.3233 7.07087 38.3336 7.00151L38.2638 6.95618L38.2043 6.90253L38.1215 6.86975C38.0401 6.8983 38.049 6.92131 38.0643 6.84012C38.0406 6.83453 37.9983 6.83052 37.9586 6.80692C37.8938 6.76841 37.9287 6.78323 37.8897 6.73653C35.815 6.01014 34.3009 7.24391 33.455 9.06177C32.1426 11.8821 31.8062 18.2256 34.8252 20.2616C36.5985 21.4575 38.7253 20.996 40.3487 19.9978C40.3789 19.7332 40.1788 18.9057 40.0537 18.728C39.8031 18.6934 39.2654 18.8661 38.9666 18.9155C38.5752 18.9803 38.1685 19.0153 37.7417 19.0054C36.9518 18.987 36.2998 18.6381 35.9135 18.2432C34.921 17.2287 34.8137 15.9507 34.7819 14.1149C35.2319 14.1313 35.6975 14.2068 36.1527 14.225L40.4817 14.2231C40.6305 12.9571 40.4074 10.6561 39.9905 9.38493C39.7579 8.67596 39.6161 8.57313 39.4642 8.17771L39.4642 8.17779Z" fill="#24181E"/>
<path fill-rule="evenodd" clip-rule="evenodd" d="M44.834 13.5865C45.0118 13.6577 46.5392 16.9329 46.7461 17.3586C47.0455 17.9748 47.8785 19.7678 48.1588 20.2583C48.3683 20.6247 48.6251 20.6417 49.1649 20.6419C50.7242 20.6423 50.934 20.8012 50.6524 20.248L49.4461 17.9247C48.8078 16.6837 48.1526 15.4155 47.487 14.1678C46.8339 12.9434 46.7842 13.2871 47.3648 12.2467L49.8967 7.62376C50.2043 7.0343 50.4158 6.86155 49.9849 6.8563C49.5083 6.85046 49.0204 6.85601 48.5428 6.85776C47.9603 6.85989 47.8773 7.02708 47.6783 7.42536C47.3465 8.0891 47.0729 8.6865 46.7527 9.34294C46.4432 9.9773 46.1457 10.5927 45.8387 11.259C45.7015 11.5566 45.0894 12.9901 44.8321 13.0586C44.763 12.0652 44.9534 7.33453 44.7834 6.89011C44.6051 6.82771 42.9357 6.82813 42.7555 6.89655C42.6382 7.18121 42.7084 12.8899 42.7079 13.7328C42.7076 14.227 42.6612 20.261 42.7377 20.5912C42.969 20.6787 44.5832 20.6814 44.7982 20.5949C44.8917 20.1763 44.7657 14.533 44.8339 13.5864L44.834 13.5865Z" fill="#24181E"/>
<path fill-rule="evenodd" clip-rule="evenodd" d="M58.5633 18.7162C58.3781 18.7093 57.5868 18.9268 57.1136 18.982C55.4946 19.1708 54.4359 18.4683 53.8771 16.9039C53.2399 15.1198 53.3274 12.4811 53.8289 10.6274C54.2104 9.21751 55.0293 7.6216 56.5593 8.47622C57.6701 9.09671 57.3048 9.77564 58.3215 8.04912C58.6684 7.46 58.7817 7.42026 58.0644 7.08882C54.9768 5.6622 52.8002 7.08332 51.7461 10.3622C50.735 13.5074 50.7333 19.5226 54.4658 20.748C55.5506 21.1041 56.4605 21.0022 57.4944 20.6622C57.8731 20.5377 58.4126 20.2959 58.7013 20.0814C58.9124 19.9245 58.8156 19.6491 58.7567 19.4087C58.7001 19.1773 58.6595 18.8874 58.5634 18.7162L58.5633 18.7162Z" fill="#24181E"/>
<path fill-rule="evenodd" clip-rule="evenodd" d="M14.798 20.607C14.4716 20.6007 14.1398 20.6015 13.8111 20.6017C13.5802 20.6018 13.0199 20.571 12.8617 20.5909C12.7677 17.4013 12.8477 13.6497 12.8439 10.3529C12.8432 9.77065 12.8091 7.29563 12.8713 6.92594C13.2408 6.8865 14.5714 6.84258 14.8838 6.94596C14.8583 7.4373 14.8637 12.1081 14.9166 12.3122C15.2835 12.3613 16.7566 12.3302 17.3076 12.3298C17.446 12.3298 17.9956 12.37 18.0657 12.2776L18.086 12.2344C18.0872 12.2287 18.0921 12.2155 18.0934 12.2081L18.0974 11.6738C18.0962 10.4122 18.0471 7.9291 18.1073 6.94989L18.1338 6.9061L18.1834 6.88749C18.6685 6.96018 19.5422 6.88322 20.084 6.91399C20.0591 6.99548 20.0484 6.97994 20.1273 6.94801C20.0962 7.03658 20.0835 7.01165 20.1802 7.01165C20.1804 6.90725 20.213 6.90793 20.1273 6.94801C20.16 6.86909 20.1654 6.88928 20.084 6.91399C20.039 6.84484 20.2026 6.87506 19.9882 6.84758L18.5896 6.84668C18.4505 6.84566 18.2968 6.82892 18.1834 6.88753C18.1203 6.86337 18.1282 6.84425 18.1338 6.90614C18.0726 6.89982 18.087 6.88941 18.1073 6.94993L18.0565 7.12626C18.0534 7.15703 18.0564 7.24778 18.0569 7.28363C18.0584 7.40067 18.0588 7.51643 18.0584 7.63347C18.0548 8.69728 18.0103 11.6303 18.0656 12.2777L14.9383 12.2888C14.905 11.0172 14.9344 9.52744 14.9344 8.21623C14.9344 8.03777 14.9918 7.07201 14.8838 6.94609C14.8663 6.8244 14.8343 6.84954 14.6699 6.84399L13.8499 6.84651C13.5109 6.84638 13.0343 6.78769 12.8115 6.94199C12.7459 7.34945 12.7949 8.22588 12.7953 8.68247L12.7951 18.9776C12.7944 20.9366 12.5696 20.6526 13.8499 20.6524C14.0511 20.6524 14.6624 20.6886 14.7979 20.6071L14.798 20.607Z" fill="#575457"/>
<path fill-rule="evenodd" clip-rule="evenodd" d="M14.8841 20.4978C14.9139 20.4559 14.9076 20.4893 14.9266 20.4119L14.9326 20.1042C14.9217 18.2569 14.889 15.7616 14.9385 14.0518L18.0449 14.0537C18.1046 14.3807 18.062 17.7203 18.0619 18.3559C18.0612 20.9799 17.8025 20.6535 19.0151 20.6521L19.9477 20.6472C20.0896 20.6242 20.0024 20.6339 20.0462 20.6121C19.7396 20.5821 19.3697 20.6042 19.054 20.6031C18.9348 20.6027 18.2263 20.6295 18.1448 20.5457C18.0256 20.3246 18.0993 17.7472 18.0993 17.2681C18.0993 16.8437 18.1515 14.2076 18.0732 14.0579C18.007 13.9745 17.798 14.0107 17.6943 14.011L14.9881 14.0186C14.887 14.0373 14.8935 14.0967 14.8867 14.1229C14.8865 14.1236 14.8827 14.2287 14.8827 14.2347C14.883 14.2965 14.8888 14.3659 14.8888 14.432C14.8877 16.3345 14.8351 18.7238 14.8841 20.4978Z" fill="#575457"/>
<path fill-rule="evenodd" clip-rule="evenodd" d="M23.5978 22.9893L23.6384 22.8645C23.6417 22.837 23.6382 22.7412 23.6378 22.7075L23.6458 20.6628L29.4336 20.677C29.4927 20.8146 29.4635 21.1158 29.4635 21.2697L29.5225 23.2356C29.5489 23.3111 29.4386 23.2979 29.5496 23.3072L29.6366 23.3354C29.6057 23.2993 29.6082 23.2995 29.5696 23.2642C29.5336 23.2314 29.5601 23.2561 29.5225 23.2356C29.4978 22.8211 29.51 22.3592 29.51 21.9301C29.51 21.8186 29.5559 20.7007 29.4614 20.6327C29.2019 20.5618 26.9774 20.6188 26.5147 20.6196C25.5746 20.6213 24.458 20.6705 23.5898 20.6217L23.5977 22.9892L23.5978 22.9893Z" fill="#787677"/>
<path fill-rule="evenodd" clip-rule="evenodd" d="M3.69996 12.2952C3.55782 12.0976 2.91645 11.8575 2.12936 10.8435L2.00562 10.6989C1.96431 10.6461 1.95816 10.6333 1.92273 10.5854C1.69591 10.2788 1.59018 10.0149 1.42931 9.67991L1.28499 9.31552C1.21042 9.12468 1.28303 9.26908 1.20312 9.20215C1.22524 9.32055 1.25571 9.39849 1.28064 9.46845L1.759 10.4324C1.76356 10.4392 1.77022 10.4485 1.77496 10.4553L1.88193 10.6249C1.93703 10.717 1.9766 10.7404 2.04246 10.8165C2.31222 11.1277 2.48962 11.3969 2.84073 11.6862L3.69992 12.2953L3.69996 12.2952Z" fill="#FC8C92"/>
<path fill-rule="evenodd" clip-rule="evenodd" d="M38.0653 6.83992C38.05 6.92111 38.0411 6.8981 38.1225 6.86954L38.2052 6.90233L38.2648 6.95598L38.3346 7.00131C38.3243 7.07071 38.3126 7.05505 38.3814 7.03366C38.4132 7.07468 38.36 7.0699 38.4936 7.1166C38.5326 7.17678 38.4792 7.1303 38.5472 7.18169C38.8473 7.40847 38.657 7.19637 38.9771 7.56384C39.0538 7.65198 38.9949 7.59487 39.0651 7.63499C39.1093 7.7064 39.1317 7.73679 39.176 7.79425C39.2 7.82536 39.2038 7.8298 39.2272 7.8584L39.3002 7.94309L39.3508 8.00673C39.3323 8.0743 39.3123 8.06602 39.375 8.05906L39.4267 8.1256C39.4058 8.19488 39.3929 8.17759 39.4652 8.17759C39.464 8.10392 39.4872 8.10878 39.4267 8.1256L39.375 8.05906C39.3965 7.9882 39.4181 7.99512 39.3508 8.00673C39.3395 7.87991 39.3537 7.96682 39.3002 7.94309L39.0869 7.65339C39.0827 7.64938 39.0725 7.64101 39.0651 7.63499C38.9864 7.5025 38.914 7.44415 38.8084 7.34641C38.7496 7.29199 38.7262 7.26842 38.6659 7.21563C38.5587 7.12159 38.6129 7.14332 38.4936 7.1166C38.4883 7.10857 38.4842 7.0836 38.4809 7.09069C38.4777 7.09752 38.4692 7.0711 38.4647 7.06815C38.388 7.0177 38.5398 7.04549 38.3814 7.03366C38.388 6.97211 38.3989 6.98833 38.3346 7.00131C38.3319 6.92708 38.3785 6.95628 38.2648 6.95598C38.2575 6.88918 38.3133 6.91048 38.2052 6.90233C38.1806 6.84782 38.2479 6.85482 38.1225 6.86954C38.1378 6.79634 38.1446 6.82059 38.0653 6.83992C38.0209 6.77675 38.1043 6.83565 38.017 6.78285C37.9491 6.74179 37.9661 6.75869 37.8906 6.73633C37.9296 6.78298 37.8946 6.76821 37.9595 6.80671C37.9992 6.83028 38.0415 6.83433 38.0652 6.83992H38.0653Z" fill="#787677"/>
</svg>
