<svg width="62" height="15" viewBox="0 0 62 15" fill="none" xmlns="http://www.w3.org/2000/svg">
<path fill-rule="evenodd" clip-rule="evenodd" d="M19.3785 7.43836C19.3785 6.88804 19.4479 6.37104 19.6302 5.87466C19.7915 5.43543 20.0895 4.96563 20.4069 4.65631L20.5307 4.55141C20.6162 4.4809 20.6815 4.42417 20.7859 4.34918C20.966 4.21976 21.1637 4.1157 21.3795 4.02621C22.1912 3.68977 22.565 3.70403 23.4159 3.70403C24.8909 3.70403 26.1213 4.57198 26.638 5.9184C26.8961 6.59116 26.9264 7.47598 26.7878 8.25662C26.7216 8.63001 26.5519 9.04848 26.3687 9.37309L25.9094 9.99755C25.0146 10.9066 23.9743 11.0029 22.7815 11.0029C20.7966 11.0029 19.3784 9.46811 19.3784 7.43836H19.3785ZM0.63303 1.2711C0.63303 4.59631 0.346099 4.43977 1.95963 4.43958H7.9005C7.74804 4.66299 2.84059 8.78133 2.47987 9.08028L1.28198 10.1118C0.930105 10.44 0.633092 10.5385 0.633092 11.2292C0.633092 13.9896 0.36985 14.0051 1.84428 14.0018C3.10469 13.9989 13.5084 14.0458 13.7443 13.9718C13.9031 13.9219 14.1298 13.7145 14.1298 13.4359C14.1298 9.94798 14.4214 10.3239 12.6878 10.3239C11.4479 10.3239 8.36495 10.3792 7.27419 10.3154L6.86232 10.3239C6.9277 10.0837 7.54331 9.67495 7.74198 9.4894L9.66427 7.86715C9.85391 7.72262 9.92696 7.60667 10.1166 7.46215C10.2465 7.36313 10.2533 7.35384 10.3678 7.25597L11.3206 6.43663C11.4325 6.34422 11.4622 6.33767 11.5777 6.23616L13.4818 4.59612C13.8483 4.276 14.1298 4.17304 14.1298 3.47777V1.38432C14.1298 1.11207 13.9716 0.761917 13.726 0.761917H1.0368C0.826936 0.761917 0.63303 1.0378 0.63303 1.27116V1.2711ZM48.9097 14.0016C51.5984 14.0016 51.6215 14.2475 51.6206 12.7569V6.87257C51.8985 7.01679 52.1631 7.41421 52.3757 7.65952L56.2105 11.9887C56.374 12.1951 56.4927 12.2867 56.6386 12.474L57.9079 13.8315C58.4292 14.1189 60.8468 14.0222 61.097 13.9054C61.2752 13.8221 61.3682 13.5683 61.3682 13.3227V1.38426C61.3682 1.11201 61.21 0.761856 60.9644 0.761856C57.1879 0.761856 57.6191 0.451142 57.6191 2.17636V7.83438C57.4061 7.77856 57.2753 7.60194 57.1491 7.4468L54.7503 4.7077C54.5704 4.52641 54.49 4.39748 54.3173 4.2271C54.0223 3.93611 53.8081 3.61089 53.5092 3.32244C53.3316 3.15104 53.2781 3.03891 53.1061 2.8692C52.6173 2.38696 51.5036 0.761856 50.8708 0.761856C47.5045 0.761856 47.8715 0.479113 47.8715 2.11975C47.8715 3.39204 47.8075 13.4593 47.9057 13.6852C48.0413 13.9972 48.5614 14.0016 48.9097 14.0016ZM35.1246 7.3252C35.1246 6.41466 35.4033 5.402 36.0317 4.76365C36.5504 4.23675 37.0018 4.01523 37.7192 3.81633C38.2457 3.67029 38.613 3.70409 39.1621 3.70409C40.327 3.70409 41.5161 4.2956 42.0862 5.30547C42.9055 6.75693 42.788 8.7513 41.7141 9.94179C41.2582 10.4473 40.285 11.0029 39.3352 11.0029C37.6798 11.0029 36.7247 10.9177 35.6846 9.49189C35.4523 9.17353 35.2845 8.6939 35.2065 8.26341L35.1247 7.32526L35.1246 7.3252ZM31.3755 7.09889C31.3755 7.94287 31.3543 8.13758 31.5063 9.00741C31.6724 9.95727 32.1432 11.0808 32.7343 11.8766L33.7258 12.9409C35.2089 14.2892 37.3085 14.8047 39.3352 14.6853C39.8249 14.6564 40.1849 14.6571 40.6009 14.5645C41.4323 14.3793 41.9519 14.1996 42.6512 13.8599C42.813 13.7813 42.9548 13.6864 43.0875 13.6089C43.613 13.3019 43.8045 13.1542 44.2522 12.7145C45.1086 11.8732 45.7058 10.8694 46.0472 9.72258C46.4793 8.27112 46.4576 6.53801 46.0595 5.02892L45.6878 4.03561C45.3918 3.48281 45.345 3.30764 44.9229 2.74907C44.3704 2.01794 43.4994 1.29379 42.6814 0.874104C42.5321 0.797472 42.3711 0.738254 42.2115 0.656161C41.9866 0.540515 41.985 0.548342 41.7134 0.465764L40.6185 0.181929C38.1686 -0.301526 35.3963 0.197947 33.582 1.90794C32.8658 2.583 32.3572 3.24017 31.9603 4.22109C31.6339 5.0277 31.3755 5.98533 31.3755 7.09889ZM15.6293 7.09889C15.6293 7.96113 15.6171 8.43591 15.8339 9.27462C16.0903 10.2666 16.5813 11.5526 17.3445 12.3191L17.7866 12.7907C18.1666 13.0821 18.3957 13.3236 18.8259 13.5818C19.77 14.1484 21.203 14.6757 22.3184 14.6822C23.1162 14.6868 22.6173 14.7948 23.5974 14.689C24.2767 14.6157 24.1846 14.7467 25.2204 14.4705L27.2068 13.7033C27.3069 13.6373 27.2555 13.6672 27.348 13.6155C27.4158 13.5778 27.4192 13.5818 27.4984 13.5367C27.8675 13.3265 28.693 12.5787 28.9535 12.2482L29.3487 11.7306C29.4855 11.5492 29.5882 11.3596 29.7003 11.1701C30.8396 9.24404 30.8853 6.42285 30.0649 4.31071C29.8819 3.83939 29.5991 3.32596 29.2998 2.91125L28.7573 2.25524C27.8759 1.32079 26.5818 0.523527 25.257 0.257165C23.7882 -0.0381378 22.5272 -0.0987516 21.0395 0.241329C20.746 0.308435 20.6207 0.329125 20.3672 0.430512C19.1136 0.931927 18.6617 1.10285 17.6336 2.10562C17.0729 2.65248 16.5614 3.40205 16.23 4.18014C15.9006 4.95344 15.6293 6.18404 15.6293 7.09889H15.6293Z" fill="url(#paint0_linear_1923_377)"/>
<defs>
<linearGradient id="paint0_linear_1923_377" x1="57.6192" y1="6.27123" x2="11.3206" y2="6.27123" gradientUnits="userSpaceOnUse">
<stop stop-color="#6339F5"/>
<stop offset="1" stop-color="#3D3F54"/>
</linearGradient>
</defs>
</svg>
