<svg width="76" height="76" viewBox="0 0 76 76" fill="none" xmlns="http://www.w3.org/2000/svg">
<path d="M38 76C58.9868 76 76 58.9868 76 38C76 17.0132 58.9868 0 38 0C17.0132 0 0 17.0132 0 38C0 58.9868 17.0132 76 38 76Z" fill="#672250"/>
<path fill-rule="evenodd" clip-rule="evenodd" d="M32.1645 32.6058V40.4916C32.1645 41.2561 31.5539 42.1246 30.5013 41.2205C30.0041 40.7933 29.3091 40.0386 28.8964 39.5111L26.8707 36.5955C25.965 35.0577 25.3491 33.796 24.6685 32.1587C24.2292 31.1021 23.1387 28.2113 22.6433 27.5431C22.4035 27.2196 21.992 27.0315 21.4676 27.0315H15.951C15.4627 27.0315 14.9066 27.094 14.5804 27.2782C14.2625 27.4576 14 27.8543 14 28.3232C14 29.4266 14.4425 30.3973 14.8262 31.2952C16.1394 34.3681 16.818 35.5897 18.4633 38.6328C18.6714 39.0179 18.8889 39.4014 19.113 39.7438C20.5501 41.9395 20.8043 42.4567 22.5232 44.5235C23.6018 45.8203 24.4002 46.6313 25.587 47.8178C25.7709 48.0017 25.8785 48.045 26.0599 48.2235C26.6226 48.7771 28.0028 49.7934 28.6386 50.2406C29.2628 50.6796 30.2678 51.2168 30.9755 51.55C33.2989 52.644 37.6104 53.4118 40.0758 52.7005C40.5891 52.5525 40.9946 52.4592 41.2066 52.0077C41.6372 51.0902 41.3812 48.1311 41.3812 46.8138C41.3812 44.7192 43.2211 45.3499 44.2208 45.9838C45.1784 46.5912 46.6387 47.7992 47.4198 48.5977L48.8963 50.0289C49.0202 50.1786 49.0235 50.2164 49.167 50.3671C49.7671 50.997 49.6985 50.8474 50.2897 51.612C50.5929 52.0042 51.075 52.4349 51.5668 52.6328C52.0722 52.8362 52.8825 53 53.5581 53H58.0656C58.5168 53 59.0498 52.9053 59.365 52.7494C61.2133 51.8352 58.5062 48.9562 57.8258 48.0758C57.7004 47.9135 57.6693 47.8901 57.5483 47.7444L56.1309 46.1175C55.2417 45.0971 53.7318 43.7732 52.5652 42.4467C51.8812 41.6689 51.2648 41.089 52.0287 40.0338C52.2165 39.7745 52.3366 39.5767 52.5216 39.3083L53.7415 37.4819C53.8443 37.3388 53.8824 37.2531 53.9748 37.1058L54.9568 35.6509C55.8037 34.3725 57.5344 31.6415 58.1524 30.1784C58.459 29.4524 59.3388 27.9999 58.3266 27.2438C57.8383 26.8791 53.31 27.0317 52.4144 27.0317C51.3564 27.0317 51.0581 27.3456 50.6239 28.0096L47.4234 33.341C47.0608 33.9501 46.6763 34.45 46.2545 35.0151C45.9684 35.3984 44.1391 37.7451 43.7186 38.163C43.4623 38.4178 42.6847 39.472 42.1885 39.472C41.6449 39.472 41.3789 39.4861 41.3788 38.3187L41.3844 27.9802C41.3819 27.3656 41.1738 27.0317 40.5739 27.0317H31.0207C30.4909 27.0317 29.8936 27.354 30.0793 28.1138C30.4753 29.7333 32.1644 29.6586 32.1644 32.6061L32.1645 32.6058Z" fill="white"/>
</svg>
