<svg width="76" height="76" viewBox="0 0 76 76" fill="none" xmlns="http://www.w3.org/2000/svg">
<path d="M38 76C58.9868 76 76 58.9868 76 38C76 17.0132 58.9868 0 38 0C17.0132 0 0 17.0132 0 38C0 58.9868 17.0132 76 38 76Z" fill="#672250"/>
<path fill-rule="evenodd" clip-rule="evenodd" d="M21.9769 26H55.0231C57.7604 26 60 28.1828 60 30.8508V47.1493C60 49.8172 57.7604 52 55.0231 52H21.9769C19.2396 52 17 49.8172 17 47.1493V30.8508C17 28.1828 19.2396 26 21.9769 26ZM32.6198 31.0674L39.6682 35.0337L46.7167 39L39.6682 42.9664L32.6198 46.9327V39.0001V31.0675V31.0674Z" fill="white"/>
</svg>
