<svg width="320" height="319" viewBox="0 0 320 319" fill="none" xmlns="http://www.w3.org/2000/svg">
<path d="M149.493 24.5887C153.721 15.1028 167.185 15.1028 171.414 24.5887L201.699 92.5304C203.443 96.4428 207.14 99.1289 211.399 99.5785L285.374 107.386C295.703 108.476 299.863 121.281 292.148 128.234L236.891 178.032C233.709 180.9 232.296 185.246 233.185 189.436L248.619 262.203C250.774 272.363 239.881 280.277 230.885 275.088L166.449 237.923C162.738 235.783 158.168 235.783 154.458 237.923L90.0214 275.088C81.025 280.277 70.1322 272.363 72.2871 262.203L87.7211 189.436C88.6099 185.246 87.1977 180.9 84.0157 178.032L28.7579 128.234C21.0429 121.281 25.2036 108.476 35.5318 107.386L109.507 99.5785C113.767 99.1289 117.464 96.4428 119.208 92.5304L149.493 24.5887Z" fill="#F0D395"/>
<path d="M160.953 102.5C192.71 102.5 218.453 128.243 218.453 160C218.453 191.757 192.71 217.5 160.953 217.5C129.196 217.5 103.453 191.756 103.453 160C103.453 128.243 129.197 102.5 160.953 102.5Z" fill="url(#paint0_linear_99_2)" stroke="#F0D395" stroke-width="3"/>
<path fill-rule="evenodd" clip-rule="evenodd" d="M168.402 199.143C180.965 186.337 191.966 169.482 197.306 147.931C198.889 141.539 196.323 137.854 190.144 136.064C174.002 131.905 155.507 130.661 135.853 135.441C134.828 135.69 133.799 135.957 132.767 136.239C133.013 137.657 133.31 139.126 133.65 140.623L133.677 140.616C134.581 144.771 135.66 148.527 136.969 152.194C137.431 153.484 137.924 154.774 138.453 156.076C143.546 169.165 151.154 180.926 161.319 190.914C173.496 178.294 182.164 163.311 186.56 146.312C182.096 145.2 177.612 144.379 173.121 143.859C173.273 143.403 173.424 142.943 173.574 142.476C174.085 140.873 174.549 139.282 174.966 137.683C179.646 138.275 184.316 139.172 188.964 140.367C192.769 141.481 193.957 142.895 192.976 146.857C188.319 165.653 178.786 182.171 165.266 195.968C162.399 198.706 160.58 199.029 157.64 196.197C146.234 185.215 137.779 172.171 132.237 157.607C131.412 155.458 130.635 153.219 129.925 150.954C128.66 146.919 127.6 142.766 126.851 138.852C124.186 141.067 123.563 144.38 124.646 148.773C129.455 166.056 138.551 184.011 154.545 199.411C159.289 203.978 163.763 203.598 168.403 199.141L168.402 199.143ZM166.74 143.321C158.228 142.874 149.71 143.514 141.267 145.3C140.683 143.307 140.164 141.268 139.701 139.137C149.31 137.078 159.015 136.415 168.702 137.073C168.371 138.294 168.025 139.467 167.663 140.602C167.379 141.492 167.071 142.397 166.74 143.32V143.321ZM161.209 181.568C168.872 172.513 174.735 162.317 178.519 151.079C166.846 148.97 155.085 148.991 143.461 151.333C147.471 162.496 153.369 172.671 161.209 181.568Z" fill="black" fill-opacity="0.290196"/>
<path fill-rule="evenodd" clip-rule="evenodd" d="M167.599 198.342C181.557 184.112 191.401 167.051 196.205 147.659C197.639 141.872 195.419 138.774 189.844 137.158C171.394 132.403 152.517 132.197 134.07 137.063C134.204 137.783 134.349 138.5 134.502 139.216L134.532 139.207L134.786 140.374C135.632 144.259 136.7 148.067 138.038 151.811C138.5 153.105 139.01 154.382 139.51 155.662C144.453 168.312 151.733 179.668 161.298 189.293C172.652 177.275 180.836 163.115 185.166 147.139C181.153 146.186 177.088 145.46 172.989 144.984L171.6 144.822L172.045 143.496C172.197 143.042 172.347 142.585 172.493 142.128C172.993 140.563 173.453 138.984 173.868 137.394L174.12 136.429L175.109 136.554C179.873 137.157 184.595 138.07 189.247 139.266L189.266 139.271L189.283 139.276C193.657 140.556 195.213 142.542 194.076 147.128C189.374 166.106 179.737 182.818 166.076 196.76L166.064 196.773L166.05 196.787C162.754 199.935 160.257 200.289 156.853 197.012C145.427 186.01 136.819 172.822 131.177 158.009C130.333 155.794 129.551 153.554 128.842 151.291C127.816 148.016 126.919 144.681 126.195 141.32C124.946 143.413 125.136 146.019 125.743 148.483C131.084 167.674 140.938 184.732 155.331 198.592C159.624 202.725 163.415 202.354 167.6 198.34L167.599 198.342ZM166.682 144.454C158.233 144.01 149.783 144.657 141.504 146.409L140.476 146.627L140.181 145.619C139.576 143.558 139.05 141.477 138.594 139.377L138.353 138.266L139.466 138.027C149.081 135.967 158.971 135.275 168.781 135.941L170.161 136.034L169.8 137.368C169.475 138.568 169.124 139.761 168.747 140.945C168.452 141.87 168.139 142.789 167.811 143.702L167.526 144.495L166.684 144.452L166.682 144.454ZM160.359 182.318C152.429 173.319 146.445 162.997 142.393 151.716L141.95 150.481L143.238 150.221C154.996 147.852 166.926 147.831 178.721 149.963L180.014 150.197L179.596 151.441C175.768 162.808 169.82 173.152 162.077 182.3L161.228 183.303L160.359 182.318Z" fill="black" fill-opacity="0.290196"/>
<path fill-rule="evenodd" clip-rule="evenodd" d="M170.43 119.918L168.313 129.451C163.412 129.064 158.501 129.018 153.587 129.343L151.473 119.933L155.136 124.749L158.043 119.714L160.951 124.749L163.854 119.72L166.759 124.749L170.431 119.918H170.43Z" fill="black" fill-opacity="0.290196"/>
<path fill-rule="evenodd" clip-rule="evenodd" d="M168.485 198.213C181.183 185.269 192.301 168.235 197.698 146.454C199.299 139.993 196.704 136.269 190.459 134.46C174.145 130.255 155.452 128.999 135.589 133.83C134.553 134.082 133.513 134.35 132.47 134.636C132.719 136.069 133.019 137.554 133.363 139.067L133.39 139.06C134.305 143.259 135.394 147.056 136.718 150.762C137.184 152.067 137.683 153.37 138.217 154.685C143.365 167.914 151.053 179.801 161.327 189.896C173.634 177.142 182.395 161.998 186.837 144.818C182.325 143.694 177.794 142.865 173.253 142.339C173.407 141.878 173.56 141.413 173.711 140.94C174.228 139.32 174.696 137.712 175.118 136.096C179.848 136.694 184.568 137.601 189.265 138.81C193.111 139.936 194.312 141.365 193.319 145.369C188.613 164.365 178.978 181.059 165.314 195.005C162.416 197.773 160.579 198.098 157.607 195.236C146.079 184.137 137.533 170.954 131.932 156.234C131.099 154.062 130.314 151.799 129.596 149.51C128.317 145.432 127.246 141.235 126.489 137.28C123.795 139.518 123.166 142.867 124.261 147.306C129.121 164.774 138.314 182.92 154.479 198.484C159.274 203.1 163.797 202.717 168.486 198.213H168.485ZM166.806 141.795C158.203 141.343 149.593 141.99 141.062 143.795C140.47 141.78 139.946 139.721 139.478 137.568C149.19 135.487 158.997 134.817 168.789 135.482C168.454 136.716 168.105 137.901 167.739 139.048C167.451 139.949 167.141 140.863 166.807 141.795H166.806ZM161.216 180.451C168.961 171.299 174.885 160.994 178.711 149.637C166.913 147.505 155.027 147.527 143.278 149.894C147.331 161.177 153.292 171.46 161.216 180.452V180.451Z" fill="url(#paint1_linear_99_2)"/>
<path fill-rule="evenodd" clip-rule="evenodd" d="M167.672 197.404C181.78 183.021 191.728 165.778 196.583 146.178C198.032 140.33 195.789 137.198 190.155 135.565C171.507 130.76 152.428 130.552 133.784 135.47C133.92 136.197 134.066 136.922 134.221 137.646L134.251 137.637L134.508 138.817C135.363 142.744 136.442 146.591 137.795 150.377C138.262 151.684 138.778 152.975 139.283 154.269C144.278 167.053 151.636 178.531 161.304 188.258C172.778 176.113 181.05 161.802 185.427 145.655C181.372 144.691 177.261 143.958 173.12 143.477L171.716 143.313L172.166 141.973C172.32 141.514 172.47 141.052 172.618 140.59C173.123 139.008 173.588 137.412 174.008 135.806L174.263 134.832L175.262 134.959C180.078 135.567 184.851 136.49 189.551 137.698L189.569 137.703L189.588 137.708C194.008 139.002 195.581 141.009 194.433 145.644C189.681 164.824 179.94 181.715 166.134 195.807L166.12 195.82L166.107 195.834C162.776 199.015 160.251 199.374 156.812 196.062C145.263 184.943 136.565 171.614 130.861 156.642C130.008 154.403 129.218 152.139 128.501 149.853C127.464 146.544 126.558 143.173 125.827 139.777C124.564 141.892 124.756 144.526 125.369 147.017C130.766 166.413 140.726 183.653 155.274 197.66C159.613 201.837 163.443 201.463 167.673 197.405L167.672 197.404ZM166.744 142.94C158.205 142.492 149.665 143.146 141.297 144.917L140.258 145.137L139.959 144.119C139.349 142.036 138.816 139.932 138.356 137.812L138.112 136.688L139.236 136.447C148.955 134.364 158.951 133.665 168.865 134.338L170.259 134.433L169.894 135.782C169.566 136.995 169.212 138.201 168.83 139.398C168.531 140.332 168.216 141.261 167.884 142.183L167.596 142.986L166.744 142.941V142.94ZM160.355 181.209C152.34 172.114 146.293 161.681 142.198 150.281L141.749 149.031L143.051 148.769C154.934 146.376 166.993 146.355 178.914 148.508L180.22 148.745L179.797 150.002C175.928 161.491 169.917 171.945 162.091 181.191L161.233 182.205L160.355 181.209Z" fill="url(#paint2_linear_99_2)"/>
<path fill-rule="evenodd" clip-rule="evenodd" d="M170.536 118.143L168.396 127.777C163.443 127.387 158.479 127.339 153.513 127.669L151.375 118.157L155.077 123.025L158.016 117.937L160.954 123.025L163.889 117.941L166.825 123.025L170.536 118.143Z" fill="#C6AA67"/>
<defs>
<linearGradient id="paint0_linear_99_2" x1="132.024" y1="147.539" x2="203.654" y2="158.465" gradientUnits="userSpaceOnUse">
<stop stop-color="#693056"/>
<stop offset="1" stop-color="#610944"/>
</linearGradient>
<linearGradient id="paint1_linear_99_2" x1="151.753" y1="184.835" x2="164.546" y2="127.841" gradientUnits="userSpaceOnUse">
<stop stop-color="#F0D395"/>
<stop offset="0.219608" stop-color="#CFB067"/>
<stop offset="0.368627" stop-color="#E3DBC8"/>
<stop offset="1" stop-color="#BF9E50"/>
</linearGradient>
<linearGradient id="paint2_linear_99_2" x1="160.951" y1="133.329" x2="160.951" y2="193.945" gradientUnits="userSpaceOnUse">
<stop stop-color="white" stop-opacity="0.65"/>
<stop offset="1" stop-color="white" stop-opacity="0"/>
</linearGradient>
</defs>
</svg>
