<svg width="76" height="75" viewBox="0 0 76 75" fill="none" xmlns="http://www.w3.org/2000/svg">
<g filter="url(#filter0_d_1923_816)">
<path fill-rule="evenodd" clip-rule="evenodd" d="M24.0015 61.5535L2 66.5023C4.18789 59.9137 6.39157 53.3293 8.55826 46.734C8.46892 46.5562 8.38165 46.3729 8.29605 46.1788C7.31783 43.9677 6.62719 42.3175 6.04333 39.9343C4.25521 32.6322 5.03811 24.6711 8.44107 17.9453C11.4015 12.0943 15.3305 7.81248 20.987 4.46603C29.5537 -0.602057 39.8394 -1.37 49.1084 2.23035C52.0837 3.38601 54.9465 5.04531 57.4119 7.0703C57.9289 7.495 58.342 7.74765 58.8419 8.27125C59.0895 8.53097 59.3721 8.76659 59.6356 9.01052C66.2931 15.1819 70.1212 24.9673 69.49 34.0056C68.8509 43.1628 64.8886 51.1622 57.8504 57.0584C56.3099 58.3492 54.3942 59.6295 52.6269 60.5865C43.7635 65.3874 33.644 65.5785 24.395 61.7272C24.2612 61.6715 24.1307 61.6129 24.0015 61.5531V61.5535Z" fill="url(#paint0_linear_1923_816)"/>
<path fill-rule="evenodd" clip-rule="evenodd" d="M33.6652 22.4836C33.4994 23.1784 33.0436 23.4199 32.5686 23.8363C31.4503 24.8174 29.5671 26.0728 30.0474 28.4535C30.3603 30.0056 33.3257 32.5508 34.4639 33.6903C36.0979 35.3263 37.6562 36.8871 39.3093 38.5157C40.056 39.2512 41.471 39.8721 42.9229 39.353C44.1979 38.8976 44.9334 37.9281 45.5771 37.1169C46.3966 36.0847 47.0178 35.3404 48.7698 36.1441L51.6466 38.0544C52.5683 38.6985 53.4913 39.5924 54.1462 40.3437C54.9416 41.2558 55.638 42.2868 54.947 43.8235C54.6382 44.51 53.1884 45.8062 52.651 46.3135C48.1548 50.5592 43.7287 49.5864 39.0317 46.3376C37.3732 45.1903 33.1009 40.7925 31.6211 39.2953C29.5766 37.2262 26.2663 34.0925 24.4641 31.9981C24.0971 31.5718 23.7352 31.2015 23.3525 30.7137C23.0321 30.3056 22.6369 29.7093 22.3597 29.221C19.1512 23.5699 19.7891 20.3136 24.2293 15.8635C24.8451 15.2464 25.8217 14.055 27.3829 14.3546C29.0991 14.6837 31.2987 17.5327 32.313 19.0852C32.8034 19.8357 33.9744 21.1871 33.6648 22.4832L33.6652 22.4836ZM8.77734 60.7594C9.6471 60.6231 10.8447 60.2333 11.7398 60.0002L20.5537 57.6814C21.5448 57.4159 22.55 57.1545 23.5432 56.8927C24.2359 56.7099 24.2978 56.5669 24.9203 56.8611C25.328 57.0535 25.7319 57.2771 26.1712 57.4599C34.1922 60.8001 42.7858 60.6593 50.4241 56.522C51.8137 55.7695 53.6467 54.5486 54.8805 53.5151C59.747 49.4381 64.2217 43.0701 64.877 33.684C65.5195 24.4787 60.8736 16.4635 56.4916 12.4011C56.1321 12.0678 55.8678 11.8521 55.4963 11.4632C55.0903 11.0376 54.8826 10.9761 54.4766 10.6429C52.4499 8.97857 50.0023 7.53744 47.4334 6.53969C39.4452 3.43634 30.6517 4.11951 23.34 8.445C18.4003 11.3676 15.11 15.0028 12.5651 20.0327C9.68408 25.7266 8.99426 32.5521 10.5326 38.8348C11.1319 41.282 11.5553 42.1214 12.5227 44.3089C13.2977 46.0609 13.7399 45.8826 13.3796 46.9049C13.0538 47.8286 12.7783 48.7354 12.4637 49.6583L8.77734 60.7598V60.7594Z" fill="#2CB742"/>
<path fill-rule="evenodd" clip-rule="evenodd" d="M33.6674 22.4836C33.977 21.1875 32.8059 19.8361 32.3156 19.0856C31.3012 17.5331 29.1017 14.6841 27.3855 14.3549C25.8242 14.0553 24.8473 15.2467 24.2318 15.8638C19.7916 20.314 19.1533 23.5702 22.3622 29.2214C22.6394 29.7096 23.0346 30.306 23.355 30.714C23.7377 31.2019 24.0997 31.5717 24.4666 31.9985C26.2689 34.0929 29.5792 37.2266 31.6237 39.2956C33.1035 40.7929 37.3758 45.1907 39.0342 46.338C43.7317 49.5868 48.1573 50.5596 52.6536 46.3139C53.1909 45.8065 54.6408 44.5104 54.9495 43.8239C55.6406 42.2872 54.9441 41.2562 54.1487 40.3441C53.4938 39.5927 52.5709 38.6989 51.6492 38.0548L48.7723 36.1445C47.0199 35.3408 46.3987 36.0851 45.5796 37.1173C44.9359 37.9284 44.2004 38.8979 42.9255 39.3534C41.4735 39.8724 40.0586 39.2512 39.3118 38.516C37.6583 36.8875 36.1004 35.3267 34.4665 33.6906C33.3283 32.5508 30.3629 30.0059 30.05 28.4538C29.57 26.0731 31.4533 24.8177 32.5711 23.8366C33.0461 23.4198 33.5016 23.1788 33.6678 22.484L33.6674 22.4836Z" fill="white"/>
</g>
<defs>
<filter id="filter0_d_1923_816" x="0" y="0" width="75.5586" height="74.5023" filterUnits="userSpaceOnUse" color-interpolation-filters="sRGB">
<feFlood flood-opacity="0" result="BackgroundImageFix"/>
<feColorMatrix in="SourceAlpha" type="matrix" values="0 0 0 0 0 0 0 0 0 0 0 0 0 0 0 0 0 0 127 0" result="hardAlpha"/>
<feOffset dx="2" dy="4"/>
<feGaussianBlur stdDeviation="2"/>
<feComposite in2="hardAlpha" operator="out"/>
<feColorMatrix type="matrix" values="0 0 0 0 0.172549 0 0 0 0 0.717647 0 0 0 0 0.258824 0 0 0 0.21 0"/>
<feBlend mode="normal" in2="BackgroundImageFix" result="effect1_dropShadow_1923_816"/>
<feBlend mode="normal" in="SourceGraphic" in2="effect1_dropShadow_1923_816" result="shape"/>
</filter>
<linearGradient id="paint0_linear_1923_816" x1="43.4585" y1="24.2987" x2="32.7015" y2="61.0644" gradientUnits="userSpaceOnUse">
<stop stop-color="white"/>
<stop offset="1" stop-color="#D1D1D1"/>
</linearGradient>
</defs>
</svg>
