<svg width="54" height="54" viewBox="0 0 54 54" fill="none" xmlns="http://www.w3.org/2000/svg">
<path d="M27 54C41.9117 54 54 41.9117 54 27C54 12.0883 41.9117 0 27 0C12.0883 0 0 12.0883 0 27C0 41.9117 12.0883 54 27 54Z" fill="white"/>
<path fill-rule="evenodd" clip-rule="evenodd" d="M15.4722 19H38.5278C40.4375 19 42 20.5112 42 22.3582V33.6418C42 35.4888 40.4375 37 38.5278 37H15.4722C13.5625 37 12 35.4888 12 33.6418V22.3582C12 20.5112 13.5625 19 15.4722 19ZM22.8975 22.5082L27.815 25.2541L32.7326 28L27.815 30.7459L22.8975 33.4919V28.0001V22.5082Z" fill="#610944"/>
</svg>
